<!DOCTYPE svg PUBLIC "-//W3C//DTD SVG 20010904//EN" "http://www.w3.org/TR/2001/REC-SVG-20010904/DTD/svg10.dtd">
<svg version="1.0" xmlns="http://www.w3.org/2000/svg" width="400px" height="526px" viewBox="0 0 4000 5260" preserveAspectRatio="xMidYMid meet">
<g id="layer101" fill="#0a0a0a" stroke="none">
 <path d="M179 5255 c-3 -2 -26 -5 -52 -6 -25 -1 -44 -5 -42 -9 2 -4 -6 -13 -19 -19 -13 -8 -28 -29 -35 -51 -8 -27 -11 -711 -11 -2539 0 -2219 2 -2505 15 -2531 9 -17 15 -33 15 -37 0 -5 4 -8 10 -8 5 0 15 -6 22 -13 6 -6 18 -12 26 -12 7 0 10 -4 7 -10 -4 -7 628 -10 1890 -10 1055 0 1894 4 1891 9 -3 4 13 16 36 24 23 9 39 20 35 23 -3 4 1 21 11 38 16 29 17 167 17 2111 0 1974 -1 2082 -18 2118 -10 21 -22 35 -27 32 -5 -3 -11 3 -15 14 -3 11 -27 42 -53 69 -26 27 -65 69 -87 94 -22 24 -109 120 -193 212 -85 92 -151 170 -148 173 3 4 -4 11 -16 17 -12 6 -37 31 -55 56 -18 25 -53 67 -78 94 -25 27 -45 53 -45 57 0 5 -6 9 -14 9 -13 0 -31 27 -28 43 1 4 -1 6 -5 5 -10 -4 -54 27 -48 33 2 3 -4 6 -13 8 -28 6 -2968 12 -2973 6z m2979 -57 c18 -13 114 -115 214 -228 100 -113 268 -302 373 -420 106 -118 198 -226 206 -240 12 -21 15 -299 17 -1815 2 -984 0 -1923 -3 -2085 l-7 -294 -33 -33 -33 -33 -1887 0 -1887 0 -34 34 -34 34 0 2517 0 2517 34 34 34 34 1505 0 1504 0 31 -22z"/>
 <path d="M968 5203 c200 -2 524 -2 720 0 196 1 33 2 -363 2 -396 0 -557 -1 -357 -2z"/>
 <path d="M130 5187 c0 -5 -3 -6 -7 -4 -9 6 -26 -12 -33 -33 -3 -8 -6 -1139 -8 -2513 l-2 -2498 29 -29 c16 -16 27 -30 26 -32 -2 -2 840 -3 1870 -3 1030 0 1871 3 1868 8 -4 7 11 10 22 5 3 -2 12 10 20 26 13 25 15 287 15 2101 l0 2073 -25 30 c-14 17 -25 32 -25 34 0 2 -38 44 -85 93 -46 50 -85 93 -85 96 0 4 -17 24 -37 46 -80 83 -208 225 -212 235 -2 6 -21 26 -42 45 -22 20 -39 39 -39 44 0 5 -18 25 -40 45 -22 20 -40 40 -40 45 0 5 -20 27 -45 50 -25 23 -45 45 -45 50 0 5 -17 24 -37 44 -29 26 -48 35 -78 36 l-40 2 40 6 c22 3 -636 6 -1462 6 -827 0 -1503 -4 -1503 -8z m2751 -577 c3 -223 9 -414 14 -425 17 -43 59 -88 99 -106 38 -17 71 -19 392 -19 286 0 354 -3 363 -14 13 -16 21 -3763 8 -3784 -12 -17 -3477 -18 -3495 0 -9 9 -12 551 -12 2378 0 1302 3 2370 7 2373 3 4 594 6 1312 5 l1306 -3 6 -405z m262 303 c30 -32 173 -190 316 -352 189 -213 261 -300 259 -315 -3 -21 -8 -21 -326 -24 l-322 -2 -10 26 c-15 39 -13 697 2 712 18 18 22 16 81 -45z"/>
 <path d="M280 2649 c0 -1291 3 -2354 6 -2363 6 -15 148 -16 1653 -14 905 1 1615 4 1576 8 -57 5 -44 7 73 8 l142 2 -2 1866 -3 1866 -300 4 c-368 4 -415 7 -415 18 0 5 -3 7 -6 3 -9 -8 -64 21 -64 33 0 6 -6 10 -12 10 -21 0 -61 68 -69 118 -4 26 -8 214 -8 417 l-1 370 -1285 0 -1285 0 0 -2346z m2543 1934 c2 -274 7 -399 16 -426 15 -46 72 -107 124 -131 64 -29 142 -36 445 -36 l292 0 0 -1840 0 -1840 -1695 0 -1695 0 0 2330 0 2330 1254 0 1255 0 4 -387z"/>
 <path d="M1500 4177 c0 -5 -4 -6 -9 -3 -5 3 -11 -4 -15 -17 -7 -28 -8 -325 0 -353 9 -36 46 -44 194 -44 l140 0 0 -785 0 -785 -295 0 -295 0 0 134 c0 73 -5 147 -11 165 l-11 31 -186 -2 -186 -3 -13 -25 c-18 -35 -18 -666 0 -695 8 -15 25 -22 57 -25 56 -6 2216 -7 2287 -1 42 3 53 8 57 25 12 43 6 674 -6 701 l-11 25 -182 0 c-158 0 -184 -2 -196 -17 -10 -11 -15 -58 -17 -165 l-4 -148 -289 0 -289 0 0 785 0 785 134 0 c74 0 146 4 160 10 38 14 48 70 44 236 -3 128 -5 145 -23 161 -19 17 -52 18 -528 18 -279 0 -507 -4 -507 -8z m1020 -46 c11 -22 13 -276 1 -304 -8 -21 -90 -31 -237 -32 l-82 0 -6 -44 c-8 -57 -5 -1423 3 -1521 l6 -75 310 0 310 0 5 155 c3 85 8 160 12 165 4 6 72 10 175 10 l168 0 0 -340 0 -340 -1155 -3 c-635 -1 -1165 0 -1177 3 l-23 5 0 323 c0 186 4 328 10 337 8 12 37 15 162 15 84 -1 161 -4 171 -8 15 -6 17 -23 17 -154 0 -81 4 -153 8 -159 9 -14 589 -16 615 -3 16 9 17 58 17 812 0 441 -4 807 -8 812 -4 6 -41 10 -82 10 -41 1 -111 4 -155 7 l-80 7 -3 157 c-1 87 0 164 2 171 4 10 106 13 505 13 484 0 501 -1 511 -19z"/>
 <path d="M1535 4112 c-3 -8 -5 -74 -5 -148 l0 -134 139 0 c77 0 151 -4 165 -10 l26 -10 -2 -837 -3 -838 -339 -3 c-187 -1 -344 2 -348 6 -5 5 -12 79 -15 165 l-6 157 -137 0 c-134 0 -138 -1 -144 -22 -9 -36 -7 -581 3 -597 8 -12 185 -14 1137 -13 621 0 1135 1 1142 1 9 1 12 71 12 316 l0 315 -145 0 -145 0 0 -146 c0 -81 -5 -154 -10 -165 -10 -18 -25 -19 -349 -19 l-339 0 -6 23 c-3 12 -6 390 -6 840 l0 817 26 10 c14 6 88 10 165 10 l139 0 0 148 0 147 -475 0 c-386 0 -476 -2 -480 -13z"/>
 <path d="M3097 4913 c-4 -3 -7 -151 -7 -329 l0 -322 87 -7 c93 -8 479 -2 489 8 6 5 -35 69 -48 75 -10 5 -228 250 -228 256 0 4 -18 22 -40 42 -22 20 -40 39 -40 43 0 3 -40 49 -90 101 -49 52 -90 100 -90 106 0 15 -25 36 -33 27z m53 -95 c0 -5 23 -31 50 -58 28 -27 50 -51 50 -55 0 -4 83 -97 183 -208 l184 -202 -249 3 -248 3 0 276 c0 244 2 274 15 263 8 -7 15 -17 15 -22z"/>
 </g>

</svg>