<svg id="svg" version="1.1" width="400" height="527.485380116959" viewBox="0 0 400 527.485380116959" xmlns="http://www.w3.org/2000/svg" xmlns:xlink="http://www.w3.org/1999/xlink" ><g id="svgg"><path id="path0" d="M13.836 8.229 C 11.424 9.113,9.781 10.580,8.641 12.867 L 7.600 14.957 7.598 263.779 C 7.596 500.010,7.632 512.699,8.298 514.560 C 9.154 516.949,11.054 518.928,13.311 519.780 C 16.112 520.839,310.732 520.532,312.869 519.469 C 314.312 518.751,316.149 516.794,330.199 501.000 C 333.918 496.820,337.059 493.310,337.180 493.200 C 337.301 493.090,338.660 491.560,340.200 489.801 C 341.740 488.042,343.630 485.907,344.400 485.057 C 346.870 482.331,347.350 481.795,350.200 478.581 C 354.723 473.481,363.363 463.817,363.594 463.600 C 363.711 463.490,365.065 461.960,366.604 460.200 C 368.142 458.440,369.490 456.910,369.600 456.800 C 369.969 456.431,376.631 449.018,378.023 447.427 C 378.780 446.561,381.033 444.041,383.030 441.827 C 390.232 433.837,392.323 431.204,392.965 429.321 C 393.926 426.499,393.941 17.496,392.979 14.189 C 392.189 11.469,389.999 9.147,387.384 8.256 C 384.630 7.318,16.396 7.291,13.836 8.229 M374.188 25.369 C 376.580 26.369,376.443 14.012,376.317 216.735 L 376.200 404.469 375.078 405.435 L 373.955 406.400 341.478 406.403 C 322.438 406.405,307.555 406.572,305.508 406.807 C 297.510 407.723,291.217 412.939,288.864 420.600 C 288.334 422.326,288.229 427.982,288.103 461.883 L 287.957 501.165 286.748 502.183 L 285.539 503.200 156.749 503.200 C 15.704 503.200,26.104 503.377,25.183 500.955 C 24.426 498.963,24.686 28.560,25.446 26.960 C 25.883 26.039,26.497 25.482,27.346 25.236 C 29.661 24.565,372.578 24.696,374.188 25.369 M194.800 60.861 C 192.409 61.526,192.463 61.118,192.659 77.122 C 192.859 93.493,192.925 94.401,193.918 94.397 C 194.293 94.396,197.750 92.024,201.600 89.126 C 205.450 86.228,210.580 82.432,213.000 80.689 C 219.266 76.176,227.200 69.985,227.200 69.609 C 227.200 64.991,203.228 58.519,194.800 60.861 M185.200 63.081 C 176.387 67.048,173.138 69.167,168.200 74.173 C 164.739 77.681,161.200 82.852,161.200 84.400 C 161.200 85.814,165.023 89.027,173.868 95.048 C 176.630 96.928,180.885 100.156,184.744 103.300 C 187.084 105.206,187.997 105.262,188.008 103.500 C 188.040 98.202,188.867 73.929,189.169 69.419 C 189.655 62.143,189.134 61.311,185.200 63.081 M228.000 73.252 C 227.230 73.923,224.080 76.515,221.000 79.013 C 210.482 87.542,205.200 92.141,205.200 92.767 C 205.200 93.198,209.646 94.503,221.000 97.406 C 224.960 98.418,229.903 99.776,231.984 100.423 C 234.065 101.071,236.164 101.600,236.648 101.600 C 237.133 101.600,239.270 102.063,241.398 102.630 C 246.193 103.906,246.400 103.840,246.400 101.038 C 246.400 93.183,240.908 81.453,233.788 74.100 C 231.340 71.572,230.132 71.395,228.000 73.252 M158.691 88.966 C 156.208 91.449,154.369 103.751,155.380 111.116 C 157.125 123.837,158.425 125.344,165.832 123.230 C 171.722 121.549,175.184 120.649,179.000 119.805 C 183.992 118.702,189.852 117.236,190.969 116.812 C 192.470 116.241,192.070 115.711,186.679 111.129 C 177.127 103.010,166.973 94.288,165.400 92.852 C 160.471 88.350,159.734 87.923,158.691 88.966 M214.000 101.506 C 214.000 102.293,216.719 108.634,222.701 121.800 C 224.901 126.640,227.366 132.220,228.180 134.200 C 231.029 141.125,231.267 141.148,236.590 135.000 C 241.911 128.854,246.400 117.669,246.400 110.555 L 246.400 107.961 244.700 107.189 C 243.765 106.765,242.593 106.414,242.095 106.409 C 241.598 106.404,239.125 105.860,236.600 105.200 C 234.075 104.540,231.481 104.000,230.835 104.000 C 229.488 104.000,227.429 103.600,220.367 101.965 C 214.477 100.602,214.000 100.567,214.000 101.506 M212.488 113.512 C 211.640 114.360,209.273 118.763,201.798 133.400 C 199.214 138.460,196.219 144.242,195.143 146.249 C 192.243 151.657,192.395 151.782,201.800 151.713 C 211.169 151.644,217.742 149.758,225.116 145.024 C 228.829 142.641,228.836 142.702,223.704 133.000 C 223.006 131.680,220.523 126.730,218.186 122.000 C 213.319 112.147,213.533 112.467,212.488 113.512 M196.600 120.188 C 191.746 121.036,186.925 122.050,178.200 124.058 C 172.222 125.434,171.146 125.623,167.395 125.950 C 160.966 126.512,160.152 127.536,162.878 131.627 C 168.003 139.319,177.307 146.494,185.710 149.235 C 188.982 150.302,189.946 150.019,190.756 147.754 C 191.062 146.899,191.809 145.120,192.415 143.800 C 193.431 141.585,194.164 140.025,198.707 130.400 C 203.609 120.014,203.663 119.863,202.567 119.443 C 202.219 119.309,201.904 119.218,201.867 119.239 C 201.830 119.261,199.460 119.688,196.600 120.188 M86.480 183.280 C 85.726 184.034,85.791 245.329,86.547 245.956 C 86.938 246.281,91.135 246.380,101.247 246.305 L 115.400 246.200 115.600 231.000 C 115.816 214.613,115.828 214.523,117.992 213.404 C 119.460 212.645,182.455 212.478,184.103 213.228 C 186.341 214.248,186.191 208.541,186.304 297.143 C 186.376 353.794,186.277 379.370,185.983 380.461 C 185.143 383.582,185.059 383.597,168.380 383.599 C 157.544 383.600,153.636 383.724,153.280 384.080 C 152.592 384.768,152.592 412.032,153.280 412.720 C 153.977 413.417,248.423 413.417,249.120 412.720 C 249.748 412.092,249.809 385.539,249.186 384.374 C 248.788 383.630,248.195 383.600,234.086 383.599 C 217.333 383.597,217.257 383.583,216.417 380.461 C 216.123 379.370,216.024 353.794,216.096 297.143 C 216.209 208.541,216.059 214.248,218.297 213.228 C 219.945 212.478,282.940 212.645,284.408 213.404 C 286.572 214.523,286.584 214.613,286.800 231.000 L 287.000 246.200 301.153 246.305 C 311.265 246.380,315.462 246.281,315.853 245.956 C 316.609 245.329,316.674 184.034,315.920 183.280 C 315.221 182.581,87.179 182.581,86.480 183.280 M371.456 424.220 C 372.939 425.703,372.109 427.800,368.659 431.290 C 368.381 431.571,366.635 433.512,364.777 435.603 C 360.457 440.469,359.060 442.038,356.600 444.787 C 355.500 446.016,353.340 448.449,351.800 450.193 C 350.260 451.937,348.100 454.368,347.000 455.596 C 345.900 456.823,343.830 459.158,342.400 460.783 C 340.970 462.409,339.521 464.022,339.179 464.369 C 338.838 464.716,336.588 467.250,334.179 470.000 C 331.771 472.750,329.709 475.090,329.598 475.200 C 329.487 475.310,327.957 477.011,326.198 478.979 C 324.439 480.948,322.730 482.852,322.400 483.211 C 322.070 483.569,321.367 484.389,320.839 485.031 C 320.310 485.674,319.050 487.104,318.039 488.209 C 317.027 489.313,314.807 491.766,313.104 493.659 C 309.263 497.927,307.995 498.576,306.470 497.052 L 305.400 495.982 305.277 462.891 C 305.140 426.271,305.151 425.987,306.807 424.332 L 307.938 423.200 339.187 423.200 L 370.436 423.200 371.456 424.220 " stroke="none" fill="#000000" fill-rule="evenodd"></path><path id="path1" d="M14.563 6.962 C 10.447 7.963,7.684 10.801,6.799 14.938 C 6.121 18.110,6.417 512.875,7.099 514.826 C 7.781 516.779,10.146 519.446,12.143 520.514 L 13.800 521.400 162.400 521.400 L 311.000 521.400 312.863 520.539 C 315.326 519.401,315.074 519.663,331.442 501.201 C 333.142 499.284,340.281 491.299,343.781 487.400 C 345.361 485.640,347.362 483.392,348.227 482.404 C 349.092 481.417,349.980 480.412,350.200 480.173 C 350.420 479.933,351.793 478.401,353.251 476.769 C 354.709 475.136,363.529 465.278,372.851 454.863 C 391.697 433.806,393.300 431.871,394.066 429.236 C 394.899 426.373,394.857 16.686,394.024 13.813 C 393.302 11.324,390.129 7.922,387.800 7.139 C 385.523 6.374,17.698 6.199,14.563 6.962 M387.384 8.256 C 389.999 9.147,392.189 11.469,392.979 14.189 C 393.941 17.496,393.926 426.499,392.965 429.321 C 392.323 431.204,390.232 433.837,383.030 441.827 C 381.033 444.041,378.780 446.561,378.023 447.427 C 376.631 449.018,369.969 456.431,369.600 456.800 C 369.490 456.910,368.142 458.440,366.604 460.200 C 365.065 461.960,363.711 463.490,363.594 463.600 C 363.363 463.817,354.723 473.481,350.200 478.581 C 347.350 481.795,346.870 482.331,344.400 485.057 C 343.630 485.907,341.740 488.042,340.200 489.801 C 338.660 491.560,337.301 493.090,337.180 493.200 C 337.059 493.310,333.918 496.820,330.199 501.000 C 316.149 516.794,314.312 518.751,312.869 519.469 C 310.732 520.532,16.112 520.839,13.311 519.780 C 11.054 518.928,9.154 516.949,8.298 514.560 C 7.632 512.699,7.596 500.010,7.598 263.779 L 7.600 14.957 8.641 12.867 C 9.781 10.580,11.424 9.113,13.836 8.229 C 16.396 7.291,384.630 7.318,387.384 8.256 M27.346 25.236 C 26.497 25.482,25.883 26.039,25.446 26.960 C 24.686 28.560,24.426 498.963,25.183 500.955 C 26.104 503.377,15.704 503.200,156.749 503.200 L 285.539 503.200 286.748 502.183 L 287.957 501.165 288.103 461.883 C 288.229 427.982,288.334 422.326,288.864 420.600 C 291.217 412.939,297.510 407.723,305.508 406.807 C 307.555 406.572,322.438 406.405,341.478 406.403 L 373.955 406.400 375.078 405.435 L 376.200 404.469 376.317 216.735 C 376.443 14.012,376.580 26.369,374.188 25.369 C 372.578 24.696,29.661 24.565,27.346 25.236 M374.146 26.829 L 375.200 27.658 375.200 215.396 C 375.200 318.652,375.088 403.426,374.952 403.782 C 374.249 405.612,374.505 405.599,338.520 405.610 C 317.109 405.616,303.953 405.769,302.845 406.024 C 297.758 407.197,291.942 411.662,289.476 416.288 C 287.208 420.543,287.215 420.407,287.207 461.726 C 287.200 499.875,287.168 500.807,285.840 501.694 C 284.609 502.516,27.626 502.026,26.800 501.200 C 26.002 500.402,26.000 499.867,26.000 264.182 L 26.000 27.964 26.982 26.982 L 27.964 26.000 200.528 26.000 L 373.092 26.000 374.146 26.829 M195.200 59.612 C 194.210 59.786,192.731 60.215,191.913 60.565 C 191.095 60.914,189.741 61.200,188.904 61.200 C 180.398 61.200,162.945 74.996,159.826 84.185 C 159.473 85.224,158.753 86.642,158.226 87.337 C 152.703 94.618,152.913 117.592,158.572 125.178 C 159.137 125.935,159.600 126.936,159.600 127.401 C 159.600 134.109,179.084 150.066,188.482 151.057 C 189.647 151.179,191.552 151.622,192.715 152.040 C 201.980 155.370,222.380 150.407,229.047 143.201 C 229.873 142.308,230.961 141.474,231.465 141.348 C 232.581 141.068,236.819 136.638,239.301 133.157 C 244.297 126.150,247.914 115.586,247.436 109.400 C 247.316 107.860,247.232 106.150,247.248 105.600 C 247.441 98.952,247.331 97.654,246.245 93.800 C 243.622 84.488,236.371 73.332,231.274 70.767 C 230.683 70.469,229.282 69.381,228.160 68.347 C 221.571 62.278,204.991 57.884,195.200 59.612 M207.400 60.981 C 216.443 62.371,227.200 67.058,227.200 69.609 C 227.200 69.985,219.266 76.176,213.000 80.689 C 210.580 82.432,205.450 86.228,201.600 89.126 C 194.053 94.806,193.348 95.133,193.037 93.100 C 192.569 90.039,192.482 62.441,192.940 61.848 C 194.061 60.394,200.907 59.984,207.400 60.981 M189.157 63.119 C 189.402 63.577,189.406 65.865,189.169 69.419 C 188.867 73.929,188.040 98.202,188.008 103.500 C 187.997 105.262,187.084 105.206,184.744 103.300 C 180.885 100.156,176.630 96.928,173.868 95.048 C 165.023 89.027,161.200 85.814,161.200 84.400 C 161.200 82.852,164.739 77.681,168.200 74.173 C 173.138 69.167,176.387 67.048,185.200 63.081 C 187.112 62.221,188.684 62.236,189.157 63.119 M233.788 74.100 C 240.908 81.453,246.400 93.183,246.400 101.038 C 246.400 103.840,246.193 103.906,241.398 102.630 C 239.270 102.063,237.133 101.600,236.648 101.600 C 236.164 101.600,234.065 101.071,231.984 100.423 C 229.903 99.776,224.960 98.418,221.000 97.406 C 209.646 94.503,205.200 93.198,205.200 92.767 C 205.200 92.141,210.482 87.542,221.000 79.013 C 224.080 76.515,227.230 73.923,228.000 73.252 C 230.132 71.395,231.340 71.572,233.788 74.100 M205.610 89.845 C 202.131 93.506,202.190 93.670,207.474 95.021 C 209.413 95.517,211.990 96.285,213.200 96.728 C 214.410 97.170,217.470 98.079,220.000 98.747 C 225.031 100.076,227.418 100.873,227.893 101.382 C 228.410 101.937,223.623 101.267,219.489 100.205 C 212.815 98.490,211.613 98.890,212.972 102.373 C 213.364 103.378,214.298 105.910,215.047 108.000 C 216.481 111.999,216.919 113.085,217.837 114.932 C 218.147 115.555,218.386 116.545,218.368 117.132 L 218.337 118.200 217.935 117.100 C 217.714 116.495,217.388 116.000,217.210 116.000 C 217.032 116.000,216.774 115.550,216.636 115.000 C 216.498 114.450,216.208 114.000,215.992 114.000 C 215.777 114.000,215.600 113.740,215.600 113.422 C 215.600 113.105,215.184 112.362,214.677 111.771 C 213.325 110.200,212.427 110.716,210.617 114.100 C 209.764 115.695,208.588 117.720,208.004 118.600 C 207.420 119.480,206.235 121.435,205.371 122.944 C 204.507 124.453,203.578 126.073,203.306 126.544 L 202.812 127.400 202.806 126.549 C 202.800 125.740,203.628 123.309,204.359 121.987 C 206.277 118.518,205.179 117.709,199.693 118.548 C 194.816 119.294,192.863 119.358,192.000 118.800 C 191.486 118.468,191.499 118.411,192.091 118.406 C 194.534 118.384,194.190 115.819,191.462 113.722 C 190.548 113.020,188.648 111.310,187.241 109.922 C 185.834 108.535,184.135 106.996,183.467 106.503 C 181.445 105.010,175.567 99.099,175.847 98.841 C 175.991 98.708,176.190 98.825,176.288 99.100 C 176.386 99.375,176.620 99.600,176.808 99.600 C 177.288 99.600,182.182 102.961,184.746 105.051 C 188.943 108.472,188.903 108.562,189.845 93.241 C 190.145 88.343,191.200 87.578,191.200 92.258 C 191.200 96.022,192.266 97.150,194.449 95.698 C 202.245 90.511,205.033 88.615,205.200 88.384 C 205.310 88.232,205.805 87.981,206.300 87.827 C 206.795 87.672,207.200 87.378,207.200 87.173 C 207.200 86.968,207.493 86.800,207.851 86.800 C 208.256 86.800,207.409 87.951,205.610 89.845 M162.028 89.895 C 163.003 90.717,164.520 92.048,165.400 92.852 C 166.973 94.288,177.127 103.010,186.679 111.129 C 192.070 115.711,192.470 116.241,190.969 116.812 C 189.852 117.236,183.992 118.702,179.000 119.805 C 175.184 120.649,171.722 121.549,165.832 123.230 C 160.410 124.778,159.411 124.617,158.118 121.991 C 154.710 115.066,154.092 103.089,156.676 94.000 C 158.415 87.879,159.056 87.388,162.028 89.895 M220.367 101.965 C 227.429 103.600,229.488 104.000,230.835 104.000 C 231.481 104.000,234.075 104.540,236.600 105.200 C 239.125 105.860,241.598 106.404,242.095 106.409 C 242.593 106.414,243.765 106.765,244.700 107.189 L 246.400 107.961 246.400 110.555 C 246.400 117.669,241.911 128.854,236.590 135.000 C 231.267 141.148,231.029 141.125,228.180 134.200 C 227.366 132.220,224.901 126.640,222.701 121.800 C 216.719 108.634,214.000 102.293,214.000 101.506 C 214.000 100.567,214.477 100.602,220.367 101.965 M218.186 122.000 C 220.523 126.730,223.006 131.680,223.704 133.000 C 228.836 142.702,228.829 142.641,225.116 145.024 C 217.742 149.758,211.169 151.644,201.800 151.713 C 192.395 151.782,192.243 151.657,195.143 146.249 C 196.219 144.242,199.214 138.460,201.798 133.400 C 211.552 114.302,212.774 112.197,213.609 113.060 C 213.790 113.247,215.850 117.270,218.186 122.000 M202.567 119.443 C 203.663 119.863,203.609 120.014,198.707 130.400 C 194.164 140.025,193.431 141.585,192.415 143.800 C 191.809 145.120,191.062 146.899,190.756 147.754 C 189.946 150.019,188.982 150.302,185.710 149.235 C 177.307 146.494,168.003 139.319,162.878 131.627 C 160.152 127.536,160.966 126.512,167.395 125.950 C 171.146 125.623,172.222 125.434,178.200 124.058 C 186.925 122.050,191.746 121.036,196.600 120.188 C 199.460 119.688,201.830 119.261,201.867 119.239 C 201.904 119.218,202.219 119.309,202.567 119.443 M85.549 182.661 C 84.537 183.881,84.545 245.196,85.558 246.447 L 86.330 247.400 100.903 247.400 C 112.668 247.400,115.605 247.294,116.139 246.851 C 116.731 246.359,116.800 244.816,116.802 232.051 C 116.805 217.365,117.004 215.147,118.391 214.405 C 118.883 214.141,130.345 214.000,151.192 214.000 L 183.236 214.000 184.221 214.985 L 185.206 215.969 185.103 298.370 C 185.005 376.837,184.966 380.806,184.286 381.486 C 183.633 382.139,182.265 382.217,168.171 382.400 C 151.097 382.622,152.229 382.415,151.786 385.400 C 151.302 388.665,151.764 413.125,152.320 413.681 C 153.088 414.448,249.312 414.448,250.080 413.681 C 250.636 413.125,251.098 388.665,250.614 385.400 C 250.171 382.415,251.303 382.622,234.229 382.400 C 220.135 382.217,218.767 382.139,218.114 381.486 C 217.434 380.806,217.395 376.837,217.297 298.370 L 217.194 215.969 218.179 214.985 L 219.164 214.000 251.208 214.000 C 272.055 214.000,283.517 214.141,284.009 214.405 C 285.396 215.147,285.595 217.365,285.598 232.051 C 285.600 244.816,285.669 246.359,286.261 246.851 C 286.795 247.294,289.732 247.400,301.497 247.400 L 316.070 247.400 316.842 246.447 C 317.855 245.196,317.863 183.881,316.851 182.661 C 316.343 182.049,307.769 182.000,201.200 182.000 C 94.631 182.000,86.057 182.049,85.549 182.661 M315.920 183.280 C 316.674 184.034,316.609 245.329,315.853 245.956 C 315.462 246.281,311.265 246.380,301.153 246.305 L 287.000 246.200 286.800 231.000 C 286.584 214.613,286.572 214.523,284.408 213.404 C 282.940 212.645,219.945 212.478,218.297 213.228 C 216.059 214.248,216.209 208.541,216.096 297.143 C 216.024 353.794,216.123 379.370,216.417 380.461 C 217.257 383.583,217.333 383.597,234.086 383.599 C 248.195 383.600,248.788 383.630,249.186 384.374 C 249.809 385.539,249.748 412.092,249.120 412.720 C 248.423 413.417,153.977 413.417,153.280 412.720 C 152.592 412.032,152.592 384.768,153.280 384.080 C 153.636 383.724,157.544 383.600,168.380 383.599 C 185.059 383.597,185.143 383.582,185.983 380.461 C 186.277 379.370,186.376 353.794,186.304 297.143 C 186.191 208.541,186.341 214.248,184.103 213.228 C 182.455 212.478,119.460 212.645,117.992 213.404 C 115.828 214.523,115.816 214.613,115.600 231.000 L 115.400 246.200 101.247 246.305 C 91.135 246.380,86.938 246.281,86.547 245.956 C 85.791 245.329,85.726 184.034,86.480 183.280 C 87.179 182.581,315.221 182.581,315.920 183.280 M306.807 424.332 C 305.151 425.987,305.140 426.271,305.277 462.891 L 305.400 495.982 306.470 497.052 C 307.995 498.576,309.263 497.927,313.104 493.659 C 314.807 491.766,317.027 489.313,318.039 488.209 C 319.050 487.104,320.310 485.674,320.839 485.031 C 321.367 484.389,322.070 483.569,322.400 483.211 C 322.730 482.852,324.439 480.948,326.198 478.979 C 327.957 477.011,329.487 475.310,329.598 475.200 C 329.709 475.090,331.771 472.750,334.179 470.000 C 336.588 467.250,338.838 464.716,339.179 464.369 C 339.521 464.022,340.970 462.409,342.400 460.783 C 343.830 459.158,345.900 456.823,347.000 455.596 C 348.100 454.368,350.260 451.937,351.800 450.193 C 353.340 448.449,355.500 446.016,356.600 444.787 C 359.060 442.038,360.457 440.469,364.777 435.603 C 366.635 433.512,368.381 431.571,368.659 431.290 C 372.109 427.800,372.939 425.703,371.456 424.220 L 370.436 423.200 339.187 423.200 L 307.938 423.200 306.807 424.332 M370.026 424.814 C 371.894 425.814,371.285 426.792,363.091 435.951 C 360.016 439.388,355.587 444.352,353.250 446.982 C 347.004 454.011,341.839 459.810,338.845 463.157 C 337.390 464.783,335.871 466.493,335.469 466.957 C 335.067 467.421,334.167 468.430,333.469 469.201 C 332.771 469.972,330.940 472.041,329.400 473.800 C 327.860 475.559,325.772 477.899,324.759 478.999 C 323.747 480.100,322.217 481.810,321.359 482.799 C 315.409 489.664,309.466 495.989,308.754 496.215 C 306.528 496.921,306.610 498.184,306.488 461.486 C 306.370 426.114,306.360 426.440,307.610 425.190 C 308.523 424.277,368.350 423.917,370.026 424.814 " stroke="none" fill="#ffffff" fill-rule="evenodd"></path><path id="path2" d="M15.200 6.010 C 11.279 6.705,8.263 8.958,6.646 12.400 L 5.800 14.200 5.800 264.000 L 5.800 513.800 6.655 515.649 C 7.972 518.498,10.143 520.646,12.652 521.585 L 14.841 522.404 162.921 522.301 C 285.929 522.216,311.271 522.107,312.600 521.659 C 314.182 521.125,318.311 517.300,322.427 512.556 C 323.402 511.431,329.167 504.951,335.237 498.156 C 341.307 491.360,347.077 484.900,348.060 483.800 C 349.042 482.700,353.059 478.200,356.988 473.800 C 360.916 469.400,365.333 464.450,366.803 462.800 C 376.012 452.465,387.715 439.373,389.964 436.890 C 391.414 435.290,393.185 432.889,393.900 431.555 L 395.200 429.130 395.196 221.665 L 395.192 14.200 394.244 12.200 C 393.093 9.772,390.821 7.578,388.400 6.558 C 386.484 5.751,19.701 5.212,15.200 6.010 M387.800 7.139 C 390.129 7.922,393.302 11.324,394.024 13.813 C 394.857 16.686,394.899 426.373,394.066 429.236 C 393.300 431.871,391.697 433.806,372.851 454.863 C 363.529 465.278,354.709 475.136,353.251 476.769 C 351.793 478.401,350.420 479.933,350.200 480.173 C 349.980 480.412,349.092 481.417,348.227 482.404 C 347.362 483.392,345.361 485.640,343.781 487.400 C 340.281 491.299,333.142 499.284,331.442 501.201 C 315.074 519.663,315.326 519.401,312.863 520.539 L 311.000 521.400 162.400 521.400 L 13.800 521.400 12.143 520.514 C 10.146 519.446,7.781 516.779,7.099 514.826 C 6.417 512.875,6.121 18.110,6.799 14.938 C 7.684 10.801,10.447 7.963,14.563 6.962 C 17.698 6.199,385.523 6.374,387.800 7.139 M26.982 26.982 L 26.000 27.964 26.000 264.182 C 26.000 499.867,26.002 500.402,26.800 501.200 C 27.626 502.026,284.609 502.516,285.840 501.694 C 287.168 500.807,287.200 499.875,287.207 461.726 C 287.215 420.407,287.208 420.543,289.476 416.288 C 291.942 411.662,297.758 407.197,302.845 406.024 C 303.953 405.769,317.109 405.616,338.520 405.610 C 374.505 405.599,374.249 405.612,374.952 403.782 C 375.088 403.426,375.200 318.652,375.200 215.396 L 375.200 27.658 374.146 26.829 L 373.092 26.000 200.528 26.000 L 27.964 26.000 26.982 26.982 M373.600 27.600 C 374.431 28.431,374.914 402.172,374.086 403.475 C 373.289 404.728,371.310 404.800,337.761 404.800 C 304.678 404.800,303.924 404.817,301.523 405.626 C 294.503 407.991,290.188 411.999,287.557 418.600 L 286.600 421.000 286.487 460.450 C 286.374 499.781,286.372 499.902,285.545 500.650 C 284.739 501.380,281.269 501.403,158.058 501.516 C 29.807 501.634,28.481 501.624,27.405 500.548 C 26.311 499.454,26.506 28.694,27.600 27.600 C 28.865 26.335,372.335 26.335,373.600 27.600 M195.600 58.668 C 186.216 60.166,177.813 63.651,171.529 68.652 C 154.674 82.065,148.417 105.976,156.993 124.200 C 157.718 125.740,158.599 127.694,158.952 128.542 C 165.056 143.207,184.242 154.098,202.889 153.481 C 215.195 153.075,221.808 150.478,232.295 141.931 C 247.567 129.486,252.820 106.217,244.700 86.978 C 237.037 68.823,214.262 55.691,195.600 58.668 M208.102 59.983 C 216.155 61.360,224.230 64.727,228.160 68.347 C 229.282 69.381,230.683 70.469,231.274 70.767 C 236.371 73.332,243.622 84.488,246.245 93.800 C 247.331 97.654,247.441 98.952,247.248 105.600 C 247.232 106.150,247.316 107.860,247.436 109.400 C 247.914 115.586,244.297 126.150,239.301 133.157 C 236.819 136.638,232.581 141.068,231.465 141.348 C 230.961 141.474,229.873 142.308,229.047 143.201 C 222.380 150.407,201.980 155.370,192.715 152.040 C 191.552 151.622,189.647 151.179,188.482 151.057 C 179.084 150.066,159.600 134.109,159.600 127.401 C 159.600 126.936,159.137 125.935,158.572 125.178 C 152.913 117.592,152.703 94.618,158.226 87.337 C 158.753 86.642,159.473 85.224,159.826 84.185 C 162.945 74.996,180.398 61.200,188.904 61.200 C 189.741 61.200,191.095 60.914,191.913 60.565 C 195.442 59.057,201.426 58.842,208.102 59.983 M207.200 87.173 C 207.200 87.378,206.795 87.672,206.300 87.827 C 205.805 87.981,205.310 88.232,205.200 88.384 C 205.033 88.615,202.245 90.511,194.449 95.698 C 192.266 97.150,191.200 96.022,191.200 92.258 C 191.200 87.578,190.145 88.343,189.845 93.241 C 188.903 108.562,188.943 108.472,184.746 105.051 C 182.182 102.961,177.288 99.600,176.808 99.600 C 176.620 99.600,176.386 99.375,176.288 99.100 C 176.190 98.825,175.991 98.708,175.847 98.841 C 175.567 99.099,181.445 105.010,183.467 106.503 C 184.135 106.996,185.834 108.535,187.241 109.922 C 188.648 111.310,190.548 113.020,191.462 113.722 C 194.190 115.819,194.534 118.384,192.091 118.406 C 191.499 118.411,191.486 118.468,192.000 118.800 C 192.863 119.358,194.816 119.294,199.693 118.548 C 205.179 117.709,206.277 118.518,204.359 121.987 C 203.628 123.309,202.800 125.740,202.806 126.549 L 202.812 127.400 203.306 126.544 C 203.578 126.073,204.507 124.453,205.371 122.944 C 206.235 121.435,207.420 119.480,208.004 118.600 C 208.588 117.720,209.764 115.695,210.617 114.100 C 212.427 110.716,213.325 110.200,214.677 111.771 C 215.184 112.362,215.600 113.105,215.600 113.422 C 215.600 113.740,215.777 114.000,215.992 114.000 C 216.208 114.000,216.498 114.450,216.636 115.000 C 216.774 115.550,217.032 116.000,217.210 116.000 C 217.388 116.000,217.714 116.495,217.935 117.100 L 218.337 118.200 218.368 117.132 C 218.386 116.545,218.147 115.555,217.837 114.932 C 216.919 113.085,216.481 111.999,215.047 108.000 C 214.298 105.910,213.364 103.378,212.972 102.373 C 211.613 98.890,212.815 98.490,219.489 100.205 C 223.623 101.267,228.410 101.937,227.893 101.382 C 227.418 100.873,225.031 100.076,220.000 98.747 C 217.470 98.079,214.410 97.170,213.200 96.728 C 211.990 96.285,209.413 95.517,207.474 95.021 C 202.190 93.670,202.131 93.506,205.610 89.845 C 207.409 87.951,208.256 86.800,207.851 86.800 C 207.493 86.800,207.200 86.968,207.200 87.173 M201.972 93.975 C 202.463 94.402,204.154 95.044,205.728 95.402 C 210.346 96.452,211.200 96.993,211.200 98.868 C 211.200 99.760,211.809 101.915,212.600 103.827 C 214.306 107.949,214.311 108.118,212.757 109.497 C 212.074 110.104,210.920 111.770,210.194 113.200 C 208.225 117.075,207.573 117.636,205.385 117.336 C 204.395 117.200,202.253 117.317,200.624 117.596 C 196.915 118.230,195.814 117.972,195.009 116.276 C 194.665 115.551,193.119 113.925,191.573 112.662 C 188.286 109.977,188.039 109.519,188.996 107.899 C 189.482 107.077,189.801 105.402,189.989 102.687 C 190.278 98.530,190.723 97.600,192.427 97.600 C 192.798 97.600,194.519 96.620,196.251 95.421 C 199.693 93.040,200.622 92.805,201.972 93.975 M85.052 181.805 C 84.015 182.842,83.954 184.994,84.079 216.286 C 84.193 244.928,84.243 246.815,84.914 247.486 C 85.575 248.146,86.771 248.200,100.803 248.200 L 115.978 248.200 116.889 247.289 L 117.800 246.379 117.913 231.289 C 118.024 216.575,118.048 216.183,118.858 215.500 C 120.244 214.332,182.428 214.428,183.600 215.600 C 184.395 216.395,184.400 216.933,184.400 298.018 L 184.400 379.636 183.418 380.618 L 182.436 381.600 167.662 381.600 C 153.712 381.600,152.836 381.643,151.944 382.365 L 151.000 383.129 151.000 398.350 C 151.000 412.429,151.054 413.625,151.714 414.286 C 152.825 415.397,249.575 415.397,250.686 414.286 C 251.346 413.625,251.400 412.429,251.400 398.350 L 251.400 383.129 250.456 382.365 C 249.564 381.643,248.688 381.600,234.738 381.600 L 219.964 381.600 218.979 380.615 L 217.994 379.631 218.097 297.783 C 218.198 217.286,218.213 215.926,218.976 215.368 C 220.294 214.404,282.392 214.532,283.545 215.500 C 284.359 216.183,284.381 216.556,284.489 231.289 L 284.600 246.379 285.511 247.289 L 286.422 248.200 301.597 248.200 C 315.630 248.200,316.825 248.146,317.486 247.486 C 318.157 246.814,318.207 244.903,318.313 215.486 C 318.429 183.194,318.420 182.877,317.371 181.828 C 316.429 180.886,85.994 180.863,85.052 181.805 M316.851 182.661 C 317.863 183.881,317.855 245.196,316.842 246.447 L 316.070 247.400 301.497 247.400 C 289.732 247.400,286.795 247.294,286.261 246.851 C 285.669 246.359,285.600 244.816,285.598 232.051 C 285.595 217.365,285.396 215.147,284.009 214.405 C 283.517 214.141,272.055 214.000,251.208 214.000 L 219.164 214.000 218.179 214.985 L 217.194 215.969 217.297 298.370 C 217.395 376.837,217.434 380.806,218.114 381.486 C 218.767 382.139,220.135 382.217,234.229 382.400 C 251.303 382.622,250.171 382.415,250.614 385.400 C 251.098 388.665,250.636 413.125,250.080 413.681 C 249.312 414.448,153.088 414.448,152.320 413.681 C 151.764 413.125,151.302 388.665,151.786 385.400 C 152.229 382.415,151.097 382.622,168.171 382.400 C 182.265 382.217,183.633 382.139,184.286 381.486 C 184.966 380.806,185.005 376.837,185.103 298.370 L 185.206 215.969 184.221 214.985 L 183.236 214.000 151.192 214.000 C 130.345 214.000,118.883 214.141,118.391 214.405 C 117.004 215.147,116.805 217.365,116.802 232.051 C 116.800 244.816,116.731 246.359,116.139 246.851 C 115.605 247.294,112.668 247.400,100.903 247.400 L 86.330 247.400 85.558 246.447 C 84.545 245.196,84.537 183.881,85.549 182.661 C 86.397 181.640,316.003 181.640,316.851 182.661 M307.610 425.190 C 306.360 426.440,306.370 426.114,306.488 461.486 C 306.610 498.184,306.528 496.921,308.754 496.215 C 309.466 495.989,315.409 489.664,321.359 482.799 C 322.217 481.810,323.747 480.100,324.759 478.999 C 325.772 477.899,327.860 475.559,329.400 473.800 C 330.940 472.041,332.771 469.972,333.469 469.201 C 334.167 468.430,335.067 467.421,335.469 466.957 C 335.871 466.493,337.390 464.783,338.845 463.157 C 341.839 459.810,347.004 454.011,353.250 446.982 C 355.587 444.352,360.016 439.388,363.091 435.951 C 371.285 426.792,371.894 425.814,370.026 424.814 C 368.350 423.917,308.523 424.277,307.610 425.190 M369.154 425.563 C 369.834 425.994,369.520 427.495,368.515 428.612 C 364.843 432.696,358.193 440.194,356.818 441.800 C 355.876 442.900,354.269 444.700,353.248 445.800 C 352.226 446.900,350.133 449.236,348.595 450.991 C 347.058 452.746,345.464 454.546,345.054 454.991 C 344.643 455.436,339.671 461.020,334.003 467.400 C 307.184 497.594,308.373 496.409,307.616 493.682 C 307.038 491.600,307.046 428.456,307.625 426.934 C 307.859 426.319,308.264 425.680,308.525 425.514 C 309.195 425.088,368.480 425.136,369.154 425.563 " stroke="none" fill="#ffffff" fill-rule="evenodd"></path><path id="path3" d="M12.600 5.331 C 9.194 6.667,6.747 8.997,5.442 12.149 C 4.855 13.565,4.800 35.206,4.800 264.037 L 4.800 514.377 5.745 516.489 C 6.910 519.093,8.936 521.202,11.471 522.450 L 13.400 523.400 161.592 523.502 C 295.957 523.594,309.988 523.544,311.969 522.968 C 314.381 522.267,316.881 520.696,318.373 518.943 C 318.908 518.314,322.418 514.369,326.173 510.176 C 329.928 505.983,334.170 501.227,335.600 499.607 C 337.030 497.987,338.481 496.378,338.825 496.031 C 339.169 495.684,342.306 492.160,345.796 488.200 C 349.286 484.240,353.054 480.004,354.171 478.787 C 355.287 477.570,356.831 475.860,357.601 474.987 C 358.372 474.114,361.248 470.880,363.993 467.800 C 366.737 464.720,369.616 461.486,370.391 460.613 C 371.166 459.740,372.713 458.030,373.828 456.813 C 374.943 455.596,377.270 452.980,378.998 451.000 C 380.725 449.020,383.053 446.396,384.170 445.169 C 394.693 433.608,395.600 432.347,396.363 428.218 C 397.060 424.447,396.959 17.838,396.260 14.503 C 395.374 10.275,392.295 6.657,388.441 5.314 C 386.403 4.604,14.412 4.621,12.600 5.331 M388.400 6.558 C 390.821 7.578,393.093 9.772,394.244 12.200 L 395.192 14.200 395.196 221.665 L 395.200 429.130 393.900 431.555 C 393.185 432.889,391.414 435.290,389.964 436.890 C 387.715 439.373,376.012 452.465,366.803 462.800 C 365.333 464.450,360.916 469.400,356.988 473.800 C 353.059 478.200,349.042 482.700,348.060 483.800 C 347.077 484.900,341.307 491.360,335.237 498.156 C 329.167 504.951,323.402 511.431,322.427 512.556 C 318.311 517.300,314.182 521.125,312.600 521.659 C 311.271 522.107,285.929 522.216,162.921 522.301 L 14.841 522.404 12.652 521.585 C 10.143 520.646,7.972 518.498,6.655 515.649 L 5.800 513.800 5.800 264.000 L 5.800 14.200 6.646 12.400 C 8.263 8.958,11.279 6.705,15.200 6.010 C 19.701 5.212,386.484 5.751,388.400 6.558 M27.600 27.600 C 26.506 28.694,26.311 499.454,27.405 500.548 C 28.481 501.624,29.807 501.634,158.058 501.516 C 281.269 501.403,284.739 501.380,285.545 500.650 C 286.372 499.902,286.374 499.781,286.487 460.450 L 286.600 421.000 287.557 418.600 C 290.188 411.999,294.503 407.991,301.523 405.626 C 303.924 404.817,304.678 404.800,337.761 404.800 C 371.310 404.800,373.289 404.728,374.086 403.475 C 374.914 402.172,374.431 28.431,373.600 27.600 C 372.335 26.335,28.865 26.335,27.600 27.600 M372.808 28.800 C 373.446 29.809,373.325 402.198,372.686 402.728 C 372.335 403.020,361.430 403.203,338.186 403.309 C 301.395 403.476,302.956 403.380,297.699 405.809 C 293.892 407.567,289.114 412.204,287.464 415.741 C 285.164 420.670,285.213 419.697,285.200 461.000 C 285.192 484.239,285.040 499.233,284.808 499.600 C 284.382 500.275,29.207 500.541,28.533 499.867 C 28.178 499.511,27.837 30.800,28.191 29.329 C 28.306 28.850,28.715 28.376,29.100 28.275 C 31.289 27.701,372.443 28.222,372.808 28.800 M195.000 57.490 C 189.735 58.234,181.867 60.813,177.200 63.324 C 164.839 69.973,155.156 83.634,152.614 98.009 C 148.412 121.774,163.704 146.199,187.000 152.932 C 227.362 164.598,262.194 124.807,245.591 86.000 C 237.673 67.494,214.921 54.672,195.000 57.490 M207.344 58.995 C 234.704 63.479,252.195 87.139,248.024 114.021 C 245.528 130.108,232.866 145.454,217.600 150.896 C 202.836 156.158,185.089 153.703,173.000 144.725 C 167.195 140.415,160.853 133.108,158.952 128.542 C 158.599 127.694,157.718 125.740,156.993 124.200 C 148.417 105.976,154.674 82.065,171.529 68.652 C 177.813 63.651,186.216 60.166,195.600 58.668 C 197.976 58.289,204.074 58.459,207.344 58.995 M196.251 95.421 C 194.519 96.620,192.798 97.600,192.427 97.600 C 190.723 97.600,190.278 98.530,189.989 102.687 C 189.801 105.402,189.482 107.077,188.996 107.899 C 188.039 109.519,188.286 109.977,191.573 112.662 C 193.119 113.925,194.665 115.551,195.009 116.276 C 195.814 117.972,196.915 118.230,200.624 117.596 C 202.253 117.317,204.395 117.200,205.385 117.336 C 207.573 117.636,208.225 117.075,210.194 113.200 C 210.920 111.770,212.074 110.104,212.757 109.497 C 214.311 108.118,214.306 107.949,212.600 103.827 C 211.809 101.915,211.200 99.760,211.200 98.868 C 211.200 96.993,210.346 96.452,205.728 95.402 C 204.154 95.044,202.463 94.402,201.972 93.975 C 200.622 92.805,199.693 93.040,196.251 95.421 M201.092 95.379 C 201.921 95.697,203.860 96.253,205.400 96.614 C 208.156 97.260,209.600 98.241,209.600 99.467 C 209.600 99.784,210.254 101.551,211.054 103.393 L 212.508 106.741 211.669 108.070 C 211.207 108.802,210.350 110.300,209.764 111.400 C 207.712 115.249,207.341 115.600,205.331 115.600 C 204.332 115.600,202.442 115.878,201.130 116.218 C 198.074 117.010,198.054 117.001,193.848 113.014 C 191.053 110.365,190.360 109.493,190.597 108.924 C 190.762 108.526,191.011 106.454,191.149 104.320 C 191.287 102.186,191.580 100.269,191.800 100.060 C 192.204 99.677,199.321 94.814,199.492 94.805 C 199.542 94.802,200.262 95.060,201.092 95.379 M84.122 180.965 L 83.000 181.931 83.000 214.305 C 83.000 250.144,82.874 248.437,85.570 249.231 C 86.494 249.503,92.273 249.607,101.891 249.526 L 116.783 249.400 117.891 248.291 L 119.000 247.183 119.119 232.110 C 119.197 222.107,119.382 216.863,119.667 216.519 C 120.455 215.570,181.675 215.777,182.538 216.731 C 183.476 217.768,183.569 378.141,182.633 379.424 C 182.093 380.162,181.326 380.210,166.933 380.400 C 150.831 380.613,151.015 380.588,150.159 382.636 C 149.439 384.360,149.337 411.926,150.043 413.952 C 150.948 416.546,147.891 416.400,201.200 416.400 C 254.509 416.400,251.452 416.546,252.357 413.952 C 253.063 411.926,252.961 384.360,252.241 382.636 C 251.385 380.588,251.569 380.613,235.467 380.400 C 221.074 380.210,220.307 380.162,219.767 379.424 C 218.770 378.059,218.932 217.567,219.931 216.662 C 220.912 215.774,281.995 215.630,282.728 216.514 C 283.008 216.851,283.197 222.199,283.277 232.105 L 283.400 247.183 284.509 248.291 L 285.617 249.400 300.509 249.526 C 310.127 249.607,315.906 249.503,316.830 249.231 C 319.526 248.437,319.400 250.144,319.400 214.305 L 319.400 181.931 318.278 180.965 L 317.155 180.000 201.200 180.000 L 85.245 180.000 84.122 180.965 M317.371 181.828 C 318.420 182.877,318.429 183.194,318.313 215.486 C 318.207 244.903,318.157 246.814,317.486 247.486 C 316.825 248.146,315.630 248.200,301.597 248.200 L 286.422 248.200 285.511 247.289 L 284.600 246.379 284.489 231.289 C 284.381 216.556,284.359 216.183,283.545 215.500 C 282.392 214.532,220.294 214.404,218.976 215.368 C 218.213 215.926,218.198 217.286,218.097 297.783 L 217.994 379.631 218.979 380.615 L 219.964 381.600 234.738 381.600 C 248.688 381.600,249.564 381.643,250.456 382.365 L 251.400 383.129 251.400 398.350 C 251.400 412.429,251.346 413.625,250.686 414.286 C 249.575 415.397,152.825 415.397,151.714 414.286 C 151.054 413.625,151.000 412.429,151.000 398.350 L 151.000 383.129 151.944 382.365 C 152.836 381.643,153.712 381.600,167.662 381.600 L 182.436 381.600 183.418 380.618 L 184.400 379.636 184.400 298.018 C 184.400 216.933,184.395 216.395,183.600 215.600 C 182.428 214.428,120.244 214.332,118.858 215.500 C 118.048 216.183,118.024 216.575,117.913 231.289 L 117.800 246.379 116.889 247.289 L 115.978 248.200 100.803 248.200 C 86.771 248.200,85.575 248.146,84.914 247.486 C 84.243 246.815,84.193 244.928,84.079 216.286 C 83.954 184.994,84.015 182.842,85.052 181.805 C 85.994 180.863,316.429 180.886,317.371 181.828 M308.525 425.514 C 308.264 425.680,307.859 426.319,307.625 426.934 C 307.046 428.456,307.038 491.600,307.616 493.682 C 308.373 496.409,307.184 497.594,334.003 467.400 C 339.671 461.020,344.643 455.436,345.054 454.991 C 345.464 454.546,347.058 452.746,348.595 450.991 C 350.133 449.236,352.226 446.900,353.248 445.800 C 354.269 444.700,355.876 442.900,356.818 441.800 C 358.193 440.194,364.843 432.696,368.515 428.612 C 369.520 427.495,369.834 425.994,369.154 425.563 C 368.480 425.136,309.195 425.088,308.525 425.514 M367.144 426.932 C 367.736 427.646,366.495 429.256,359.439 436.927 C 358.977 437.429,357.610 438.982,356.400 440.378 C 355.190 441.775,353.917 443.206,353.572 443.559 C 353.226 443.912,348.638 449.060,343.377 455.000 C 338.115 460.940,333.628 466.000,333.405 466.244 C 331.911 467.883,329.819 470.237,327.400 473.001 C 325.860 474.760,324.500 476.290,324.378 476.400 C 324.256 476.510,321.845 479.210,319.021 482.400 C 312.406 489.873,309.544 492.812,309.131 492.557 C 308.568 492.209,308.715 427.445,309.280 426.880 C 310.021 426.139,366.528 426.190,367.144 426.932 " stroke="none" fill="#ffffff" fill-rule="evenodd"></path><path id="path4" d="M12.400 2.400 C 12.400 2.620,11.590 2.800,10.600 2.800 C 9.267 2.800,8.800 2.956,8.800 3.400 C 8.800 3.730,8.530 4.000,8.200 4.000 C 7.870 4.000,7.600 4.270,7.600 4.600 C 7.600 4.930,7.330 5.200,7.000 5.200 C 6.670 5.200,6.400 5.470,6.400 5.800 C 6.400 6.130,6.130 6.400,5.800 6.400 C 5.470 6.400,5.200 6.670,5.200 7.000 C 5.200 7.330,4.930 7.600,4.600 7.600 C 4.200 7.600,4.000 8.000,4.000 8.800 C 4.000 9.600,3.800 10.000,3.400 10.000 C 3.000 10.000,2.800 10.400,2.800 11.200 C 2.800 11.860,2.620 12.400,2.400 12.400 C 2.134 12.400,2.000 96.600,2.000 264.200 C 2.000 431.800,2.134 516.000,2.400 516.000 C 2.620 516.000,2.800 516.540,2.800 517.200 C 2.800 518.000,3.000 518.400,3.400 518.400 C 3.800 518.400,4.000 518.800,4.000 519.600 C 4.000 520.400,4.200 520.800,4.600 520.800 C 4.930 520.800,5.200 521.070,5.200 521.400 C 5.200 521.730,5.470 522.000,5.800 522.000 C 6.130 522.000,6.400 522.270,6.400 522.600 C 6.400 522.930,6.670 523.200,7.000 523.200 C 7.330 523.200,7.600 523.470,7.600 523.800 C 7.600 524.200,8.000 524.400,8.800 524.400 C 9.600 524.400,10.000 524.600,10.000 525.000 C 10.000 525.444,10.467 525.600,11.800 525.600 C 13.133 525.600,13.600 525.756,13.600 526.200 C 13.600 526.732,30.422 526.800,162.600 526.800 C 294.778 526.800,311.600 526.732,311.600 526.200 C 311.600 525.756,312.067 525.600,313.400 525.600 C 314.733 525.600,315.200 525.444,315.200 525.000 C 315.200 524.600,315.600 524.400,316.400 524.400 C 317.200 524.400,317.600 524.200,317.600 523.800 C 317.600 523.470,317.870 523.200,318.200 523.200 C 318.530 523.200,318.800 522.930,318.800 522.600 C 318.800 522.270,319.070 522.000,319.400 522.000 C 319.730 522.000,320.000 521.730,320.000 521.400 C 320.000 521.070,320.270 520.800,320.600 520.800 C 320.930 520.800,321.200 520.530,321.200 520.200 C 321.200 519.870,321.470 519.600,321.800 519.600 C 322.130 519.600,322.400 519.330,322.400 519.000 C 322.400 518.670,322.580 518.400,322.800 518.400 C 323.020 518.400,323.200 518.130,323.200 517.800 C 323.200 517.470,323.470 517.200,323.800 517.200 C 324.130 517.200,324.400 516.930,324.400 516.600 C 324.400 516.270,324.670 516.000,325.000 516.000 C 325.330 516.000,325.600 515.730,325.600 515.400 C 325.600 515.070,325.870 514.800,326.200 514.800 C 326.600 514.800,326.800 514.400,326.800 513.600 C 326.800 512.800,327.000 512.400,327.400 512.400 C 327.730 512.400,328.000 512.220,328.000 512.000 C 328.000 511.780,328.270 511.600,328.600 511.600 C 328.930 511.600,329.200 511.330,329.200 511.000 C 329.200 510.670,329.470 510.400,329.800 510.400 C 330.130 510.400,330.400 510.130,330.400 509.800 C 330.400 509.470,330.670 509.200,331.000 509.200 C 331.330 509.200,331.600 508.930,331.600 508.600 C 331.600 508.270,331.870 508.000,332.200 508.000 C 332.530 508.000,332.800 507.730,332.800 507.400 C 332.800 507.070,333.070 506.800,333.400 506.800 C 333.730 506.800,334.000 506.530,334.000 506.200 C 334.000 505.870,334.270 505.600,334.600 505.600 C 334.930 505.600,335.200 505.330,335.200 505.000 C 335.200 504.670,335.470 504.400,335.800 504.400 C 336.200 504.400,336.400 504.000,336.400 503.200 C 336.400 502.400,336.600 502.000,337.000 502.000 C 337.330 502.000,337.600 501.730,337.600 501.400 C 337.600 501.070,337.780 500.800,338.000 500.800 C 338.220 500.800,338.400 500.530,338.400 500.200 C 338.400 499.870,338.670 499.600,339.000 499.600 C 339.330 499.600,339.600 499.330,339.600 499.000 C 339.600 498.670,339.870 498.400,340.200 498.400 C 340.530 498.400,340.800 498.130,340.800 497.800 C 340.800 497.470,341.070 497.200,341.400 497.200 C 341.730 497.200,342.000 497.020,342.000 496.800 C 342.000 496.580,342.270 496.400,342.600 496.400 C 342.930 496.400,343.200 496.130,343.200 495.800 C 343.200 495.470,343.470 495.200,343.800 495.200 C 344.130 495.200,344.400 494.930,344.400 494.600 C 344.400 494.270,344.670 494.000,345.000 494.000 C 345.400 494.000,345.600 493.600,345.600 492.800 C 345.600 492.000,345.800 491.600,346.200 491.600 C 346.530 491.600,346.800 491.330,346.800 491.000 C 346.800 490.670,347.070 490.400,347.400 490.400 C 347.730 490.400,348.000 490.130,348.000 489.800 C 348.000 489.470,348.270 489.200,348.600 489.200 C 348.930 489.200,349.200 488.930,349.200 488.600 C 349.200 488.270,349.470 488.000,349.800 488.000 C 350.130 488.000,350.400 487.730,350.400 487.400 C 350.400 487.070,350.670 486.800,351.000 486.800 C 351.330 486.800,351.600 486.530,351.600 486.200 C 351.600 485.870,351.870 485.600,352.200 485.600 C 352.530 485.600,352.800 485.330,352.800 485.000 C 352.800 484.670,353.070 484.400,353.400 484.400 C 353.730 484.400,354.000 484.130,354.000 483.800 C 354.000 483.470,354.180 483.200,354.400 483.200 C 354.620 483.200,354.800 482.750,354.800 482.200 C 354.800 481.578,355.027 481.200,355.400 481.200 C 355.730 481.200,356.000 480.930,356.000 480.600 C 356.000 480.270,356.270 480.000,356.600 480.000 C 356.930 480.000,357.200 479.730,357.200 479.400 C 357.200 479.070,357.470 478.800,357.800 478.800 C 358.130 478.800,358.400 478.530,358.400 478.200 C 358.400 477.870,358.670 477.600,359.000 477.600 C 359.330 477.600,359.600 477.330,359.600 477.000 C 359.600 476.670,359.870 476.400,360.200 476.400 C 360.530 476.400,360.800 476.130,360.800 475.800 C 360.800 475.470,361.070 475.200,361.400 475.200 C 361.730 475.200,362.000 474.930,362.000 474.600 C 362.000 474.270,362.270 474.000,362.600 474.000 C 362.930 474.000,363.200 473.730,363.200 473.400 C 363.200 473.070,363.470 472.800,363.800 472.800 C 364.130 472.800,364.400 472.530,364.400 472.200 C 364.400 471.870,364.670 471.600,365.000 471.600 C 365.400 471.600,365.600 471.200,365.600 470.400 C 365.600 469.600,365.800 469.200,366.200 469.200 C 366.530 469.200,366.800 468.930,366.800 468.600 C 366.800 468.270,367.070 468.000,367.400 468.000 C 367.730 468.000,368.000 467.730,368.000 467.400 C 368.000 467.070,368.193 466.800,368.429 466.800 C 368.982 466.800,370.000 465.782,370.000 465.229 C 370.000 464.993,370.270 464.800,370.600 464.800 C 370.930 464.800,371.200 464.530,371.200 464.200 C 371.200 463.870,371.470 463.600,371.800 463.600 C 372.130 463.600,372.400 463.330,372.400 463.000 C 372.400 462.670,372.670 462.400,373.000 462.400 C 373.330 462.400,373.600 462.130,373.600 461.800 C 373.600 461.470,373.870 461.200,374.200 461.200 C 374.600 461.200,374.800 460.800,374.800 460.000 C 374.800 459.200,375.000 458.800,375.400 458.800 C 375.730 458.800,376.000 458.530,376.000 458.200 C 376.000 457.870,376.270 457.600,376.600 457.600 C 376.930 457.600,377.200 457.330,377.200 457.000 C 377.200 456.670,377.470 456.400,377.800 456.400 C 378.130 456.400,378.400 456.130,378.400 455.800 C 378.400 455.470,378.670 455.200,379.000 455.200 C 379.330 455.200,379.600 454.930,379.600 454.600 C 379.600 454.270,379.870 454.000,380.200 454.000 C 380.530 454.000,380.800 453.730,380.800 453.400 C 380.800 453.070,380.989 452.800,381.220 452.800 C 381.999 452.800,384.400 450.126,384.400 449.260 C 384.400 448.787,384.580 448.400,384.800 448.400 C 385.020 448.400,385.200 448.130,385.200 447.800 C 385.200 447.470,385.470 447.200,385.800 447.200 C 386.130 447.200,386.400 446.930,386.400 446.600 C 386.400 446.270,386.670 446.000,387.000 446.000 C 387.330 446.000,387.600 445.730,387.600 445.400 C 387.600 445.070,387.870 444.800,388.200 444.800 C 388.530 444.800,388.800 444.530,388.800 444.200 C 388.800 443.870,389.070 443.600,389.400 443.600 C 389.730 443.600,390.000 443.330,390.000 443.000 C 390.000 442.670,390.270 442.400,390.600 442.400 C 390.930 442.400,391.200 442.130,391.200 441.800 C 391.200 441.470,391.470 441.200,391.800 441.200 C 392.130 441.200,392.400 440.930,392.400 440.600 C 392.400 440.270,392.670 440.000,393.000 440.000 C 393.400 440.000,393.600 439.600,393.600 438.800 C 393.600 438.000,393.800 437.600,394.200 437.600 C 394.530 437.600,394.800 437.420,394.800 437.200 C 394.800 436.980,395.070 436.800,395.400 436.800 C 395.730 436.800,396.000 436.530,396.000 436.200 C 396.000 435.870,396.270 435.600,396.600 435.600 C 397.000 435.600,397.200 435.200,397.200 434.400 C 397.200 433.600,397.400 433.200,397.800 433.200 C 398.200 433.200,398.400 432.800,398.400 432.000 C 398.400 431.200,398.600 430.800,399.000 430.800 C 399.533 430.800,399.600 407.289,399.600 221.600 C 399.600 35.911,399.533 12.400,399.000 12.400 C 398.600 12.400,398.400 12.000,398.400 11.200 C 398.400 10.400,398.200 10.000,397.800 10.000 C 397.400 10.000,397.200 9.600,397.200 8.800 C 397.200 8.000,397.000 7.600,396.600 7.600 C 396.270 7.600,396.000 7.330,396.000 7.000 C 396.000 6.670,395.730 6.400,395.400 6.400 C 395.070 6.400,394.800 6.130,394.800 5.800 C 394.800 5.470,394.530 5.200,394.200 5.200 C 393.870 5.200,393.600 4.930,393.600 4.600 C 393.600 4.200,393.200 4.000,392.400 4.000 C 391.600 4.000,391.200 3.800,391.200 3.400 C 391.200 3.000,390.800 2.800,390.000 2.800 C 389.340 2.800,388.800 2.620,388.800 2.400 C 388.800 2.134,325.800 2.000,200.600 2.000 C 75.400 2.000,12.400 2.134,12.400 2.400 M388.441 5.314 C 392.295 6.657,395.374 10.275,396.260 14.503 C 396.959 17.838,397.060 424.447,396.363 428.218 C 395.600 432.347,394.693 433.608,384.170 445.169 C 383.053 446.396,380.725 449.020,378.998 451.000 C 377.270 452.980,374.943 455.596,373.828 456.813 C 372.713 458.030,371.166 459.740,370.391 460.613 C 369.616 461.486,366.737 464.720,363.993 467.800 C 361.248 470.880,358.372 474.114,357.601 474.987 C 356.831 475.860,355.287 477.570,354.171 478.787 C 353.054 480.004,349.286 484.240,345.796 488.200 C 342.306 492.160,339.169 495.684,338.825 496.031 C 338.481 496.378,337.030 497.987,335.600 499.607 C 334.170 501.227,329.928 505.983,326.173 510.176 C 322.418 514.369,318.908 518.314,318.373 518.943 C 316.881 520.696,314.381 522.267,311.969 522.968 C 309.988 523.544,295.957 523.594,161.592 523.502 L 13.400 523.400 11.471 522.450 C 8.936 521.202,6.910 519.093,5.745 516.489 L 4.800 514.377 4.800 264.037 C 4.800 35.206,4.855 13.565,5.442 12.149 C 6.747 8.997,9.194 6.667,12.600 5.331 C 14.412 4.621,386.403 4.604,388.441 5.314 M29.100 28.275 C 28.715 28.376,28.306 28.850,28.191 29.329 C 27.837 30.800,28.178 499.511,28.533 499.867 C 29.207 500.541,284.382 500.275,284.808 499.600 C 285.040 499.233,285.192 484.239,285.200 461.000 C 285.213 419.697,285.164 420.670,287.464 415.741 C 289.114 412.204,293.892 407.567,297.699 405.809 C 302.956 403.380,301.395 403.476,338.186 403.309 C 361.430 403.203,372.335 403.020,372.686 402.728 C 373.325 402.198,373.446 29.809,372.808 28.800 C 372.443 28.222,31.289 27.701,29.100 28.275 M370.400 215.600 L 370.400 400.400 336.400 400.400 C 306.444 400.400,302.400 400.471,302.400 401.000 C 302.400 401.444,301.933 401.600,300.600 401.600 C 299.267 401.600,298.800 401.756,298.800 402.200 C 298.800 402.600,298.400 402.800,297.600 402.800 C 296.800 402.800,296.400 403.000,296.400 403.400 C 296.400 403.773,296.022 404.000,295.400 404.000 C 294.778 404.000,294.400 404.227,294.400 404.600 C 294.400 405.000,294.000 405.200,293.200 405.200 C 292.400 405.200,292.000 405.400,292.000 405.800 C 292.000 406.130,291.730 406.400,291.400 406.400 C 291.070 406.400,290.800 406.670,290.800 407.000 C 290.800 407.330,290.530 407.600,290.200 407.600 C 289.870 407.600,289.600 407.870,289.600 408.200 C 289.600 408.530,289.330 408.800,289.000 408.800 C 288.670 408.800,288.400 408.980,288.400 409.200 C 288.400 409.420,288.130 409.600,287.800 409.600 C 287.470 409.600,287.200 409.870,287.200 410.200 C 287.200 410.530,286.930 410.800,286.600 410.800 C 286.200 410.800,286.000 411.200,286.000 412.000 C 286.000 412.800,285.800 413.200,285.400 413.200 C 285.000 413.200,284.800 413.600,284.800 414.400 C 284.800 415.200,284.600 415.600,284.200 415.600 C 283.756 415.600,283.600 416.067,283.600 417.400 C 283.600 418.733,283.444 419.200,283.000 419.200 C 282.471 419.200,282.400 423.822,282.400 458.400 L 282.400 497.600 156.600 497.600 L 30.800 497.600 30.800 264.200 L 30.800 30.800 200.600 30.800 L 370.400 30.800 370.400 215.600 M192.400 55.000 C 192.400 55.467,191.867 55.600,190.000 55.600 C 188.133 55.600,187.600 55.733,187.600 56.200 C 187.600 56.633,187.156 56.800,186.000 56.800 C 184.844 56.800,184.400 56.967,184.400 57.400 C 184.400 57.844,183.933 58.000,182.600 58.000 C 181.267 58.000,180.800 58.156,180.800 58.600 C 180.800 59.000,180.400 59.200,179.600 59.200 C 178.800 59.200,178.400 59.400,178.400 59.800 C 178.400 60.200,178.000 60.400,177.200 60.400 C 176.400 60.400,176.000 60.600,176.000 61.000 C 176.000 61.400,175.600 61.600,174.800 61.600 C 174.000 61.600,173.600 61.800,173.600 62.200 C 173.600 62.573,173.222 62.800,172.600 62.800 C 172.050 62.800,171.600 62.980,171.600 63.200 C 171.600 63.420,171.330 63.600,171.000 63.600 C 170.670 63.600,170.400 63.870,170.400 64.200 C 170.400 64.530,170.130 64.800,169.800 64.800 C 169.470 64.800,169.200 65.070,169.200 65.400 C 169.200 65.730,168.930 66.000,168.600 66.000 C 168.270 66.000,168.000 66.270,168.000 66.600 C 168.000 67.000,167.600 67.200,166.800 67.200 C 166.000 67.200,165.600 67.400,165.600 67.800 C 165.600 68.130,165.330 68.400,165.000 68.400 C 164.670 68.400,164.400 68.670,164.400 69.000 C 164.400 69.330,164.130 69.600,163.800 69.600 C 163.470 69.600,163.200 69.870,163.200 70.200 C 163.200 70.530,162.930 70.800,162.600 70.800 C 162.200 70.800,162.000 71.200,162.000 72.000 C 162.000 72.800,161.800 73.200,161.400 73.200 C 161.070 73.200,160.800 73.470,160.800 73.800 C 160.800 74.130,160.530 74.400,160.200 74.400 C 159.870 74.400,159.600 74.670,159.600 75.000 C 159.600 75.330,159.330 75.600,159.000 75.600 C 158.600 75.600,158.400 76.000,158.400 76.800 C 158.400 77.460,158.207 78.000,157.971 78.000 C 157.208 78.000,156.400 79.117,156.400 80.171 C 156.400 80.819,156.178 81.200,155.800 81.200 C 155.400 81.200,155.200 81.600,155.200 82.400 C 155.200 83.200,155.000 83.600,154.600 83.600 C 154.200 83.600,154.000 84.000,154.000 84.800 C 154.000 85.600,153.800 86.000,153.400 86.000 C 153.000 86.000,152.800 86.400,152.800 87.200 C 152.800 88.000,152.600 88.400,152.200 88.400 C 151.733 88.400,151.600 88.933,151.600 90.800 C 151.600 92.667,151.467 93.200,151.000 93.200 C 150.539 93.200,150.400 93.711,150.400 95.400 C 150.400 97.089,150.261 97.600,149.800 97.600 C 149.286 97.600,149.200 98.778,149.200 105.800 C 149.200 112.822,149.286 114.000,149.800 114.000 C 150.280 114.000,150.400 114.600,150.400 117.000 C 150.400 119.400,150.520 120.000,151.000 120.000 C 151.433 120.000,151.600 120.444,151.600 121.600 C 151.600 122.756,151.767 123.200,152.200 123.200 C 152.600 123.200,152.800 123.600,152.800 124.400 C 152.800 125.200,153.000 125.600,153.400 125.600 C 153.844 125.600,154.000 126.067,154.000 127.400 C 154.000 128.733,154.156 129.200,154.600 129.200 C 155.000 129.200,155.200 129.600,155.200 130.400 C 155.200 131.200,155.400 131.600,155.800 131.600 C 156.130 131.600,156.400 131.870,156.400 132.200 C 156.400 132.530,156.580 132.800,156.800 132.800 C 157.020 132.800,157.200 133.210,157.200 133.711 C 157.200 134.604,158.423 136.000,159.205 136.000 C 159.422 136.000,159.600 136.540,159.600 137.200 C 159.600 138.000,159.800 138.400,160.200 138.400 C 160.530 138.400,160.800 138.670,160.800 139.000 C 160.800 139.330,161.070 139.600,161.400 139.600 C 161.730 139.600,162.000 139.870,162.000 140.200 C 162.000 140.530,162.270 140.800,162.600 140.800 C 162.930 140.800,163.200 141.070,163.200 141.400 C 163.200 141.730,163.470 142.000,163.800 142.000 C 164.130 142.000,164.400 142.270,164.400 142.600 C 164.400 142.930,164.670 143.200,165.000 143.200 C 165.330 143.200,165.600 143.470,165.600 143.800 C 165.600 144.130,165.870 144.400,166.200 144.400 C 166.530 144.400,166.800 144.670,166.800 145.000 C 166.800 145.330,167.070 145.600,167.400 145.600 C 167.730 145.600,168.000 145.870,168.000 146.200 C 168.000 146.530,168.270 146.800,168.600 146.800 C 168.930 146.800,169.200 147.070,169.200 147.400 C 169.200 147.800,169.600 148.000,170.400 148.000 C 171.060 148.000,171.600 148.178,171.600 148.395 C 171.600 149.177,172.996 150.400,173.889 150.400 C 174.390 150.400,174.800 150.580,174.800 150.800 C 174.800 151.020,175.340 151.200,176.000 151.200 C 176.800 151.200,177.200 151.400,177.200 151.800 C 177.200 152.200,177.600 152.400,178.400 152.400 C 179.200 152.400,179.600 152.600,179.600 153.000 C 179.600 153.400,180.000 153.600,180.800 153.600 C 181.600 153.600,182.000 153.800,182.000 154.200 C 182.000 154.644,182.467 154.800,183.800 154.800 C 185.133 154.800,185.600 154.956,185.600 155.400 C 185.600 155.861,186.111 156.000,187.800 156.000 C 189.489 156.000,190.000 156.139,190.000 156.600 C 190.000 157.119,191.511 157.200,201.200 157.200 C 210.889 157.200,212.400 157.119,212.400 156.600 C 212.400 156.139,212.911 156.000,214.600 156.000 C 216.289 156.000,216.800 155.861,216.800 155.400 C 216.800 155.000,217.200 154.800,218.000 154.800 C 218.800 154.800,219.200 154.600,219.200 154.200 C 219.200 153.756,219.667 153.600,221.000 153.600 C 222.333 153.600,222.800 153.444,222.800 153.000 C 222.800 152.600,223.200 152.400,224.000 152.400 C 224.800 152.400,225.200 152.200,225.200 151.800 C 225.200 151.418,225.584 151.200,226.254 151.200 C 226.865 151.200,227.698 150.779,228.235 150.200 C 228.745 149.650,229.530 149.200,229.981 149.200 C 230.442 149.200,230.800 148.938,230.800 148.600 C 230.800 148.270,231.070 148.000,231.400 148.000 C 231.730 148.000,232.000 147.730,232.000 147.400 C 232.000 147.070,232.270 146.800,232.600 146.800 C 232.930 146.800,233.200 146.530,233.200 146.200 C 233.200 145.800,233.600 145.600,234.400 145.600 C 235.200 145.600,235.600 145.400,235.600 145.000 C 235.600 144.670,235.870 144.400,236.200 144.400 C 236.530 144.400,236.800 144.130,236.800 143.800 C 236.800 143.470,237.070 143.200,237.400 143.200 C 237.730 143.200,238.000 142.930,238.000 142.600 C 238.000 142.270,238.270 142.000,238.600 142.000 C 238.930 142.000,239.200 141.730,239.200 141.400 C 239.200 141.070,239.470 140.800,239.800 140.800 C 240.130 140.800,240.400 140.530,240.400 140.200 C 240.400 139.870,240.670 139.600,241.000 139.600 C 241.400 139.600,241.600 139.200,241.600 138.400 C 241.600 137.600,241.800 137.200,242.200 137.200 C 242.530 137.200,242.800 136.930,242.800 136.600 C 242.800 136.270,242.978 136.000,243.195 136.000 C 243.977 136.000,245.200 134.604,245.200 133.711 C 245.200 133.210,245.380 132.800,245.600 132.800 C 245.820 132.800,246.000 132.260,246.000 131.600 C 246.000 130.800,246.200 130.400,246.600 130.400 C 247.000 130.400,247.200 130.000,247.200 129.200 C 247.200 128.400,247.400 128.000,247.800 128.000 C 248.200 128.000,248.400 127.600,248.400 126.800 C 248.400 126.000,248.600 125.600,249.000 125.600 C 249.444 125.600,249.600 125.133,249.600 123.800 C 249.600 122.467,249.756 122.000,250.200 122.000 C 250.661 122.000,250.800 121.489,250.800 119.800 C 250.800 118.111,250.939 117.600,251.400 117.600 C 251.920 117.600,252.000 116.022,252.000 105.800 C 252.000 95.578,251.920 94.000,251.400 94.000 C 250.967 94.000,250.800 93.556,250.800 92.400 C 250.800 91.244,250.633 90.800,250.200 90.800 C 249.756 90.800,249.600 90.333,249.600 89.000 C 249.600 87.667,249.444 87.200,249.000 87.200 C 248.556 87.200,248.400 86.733,248.400 85.400 C 248.400 84.067,248.244 83.600,247.800 83.600 C 247.400 83.600,247.200 83.200,247.200 82.400 C 247.200 81.600,247.000 81.200,246.600 81.200 C 246.270 81.200,246.000 80.930,246.000 80.600 C 246.000 80.270,245.820 80.000,245.600 80.000 C 245.380 80.000,245.200 79.550,245.200 79.000 C 245.200 78.378,244.973 78.000,244.600 78.000 C 244.270 78.000,244.000 77.730,244.000 77.400 C 244.000 77.070,243.730 76.800,243.400 76.800 C 243.000 76.800,242.800 76.400,242.800 75.600 C 242.800 74.800,242.600 74.400,242.200 74.400 C 241.870 74.400,241.600 74.130,241.600 73.800 C 241.600 73.470,241.330 73.200,241.000 73.200 C 240.670 73.200,240.400 72.930,240.400 72.600 C 240.400 72.270,240.130 72.000,239.800 72.000 C 239.470 72.000,239.200 71.730,239.200 71.400 C 239.200 71.070,238.930 70.800,238.600 70.800 C 238.270 70.800,238.000 70.530,238.000 70.200 C 238.000 69.870,237.730 69.600,237.400 69.600 C 237.070 69.600,236.800 69.330,236.800 69.000 C 236.800 68.670,236.530 68.400,236.200 68.400 C 235.870 68.400,235.600 68.130,235.600 67.800 C 235.600 67.470,235.330 67.200,235.000 67.200 C 234.670 67.200,234.400 66.930,234.400 66.600 C 234.400 66.270,234.130 66.000,233.800 66.000 C 233.470 66.000,233.200 65.730,233.200 65.400 C 233.200 65.000,232.800 64.800,232.000 64.800 C 231.340 64.800,230.800 64.607,230.800 64.371 C 230.800 63.608,229.683 62.800,228.629 62.800 C 227.981 62.800,227.600 62.578,227.600 62.200 C 227.600 61.870,227.330 61.600,227.000 61.600 C 226.670 61.600,226.400 61.330,226.400 61.000 C 226.400 60.600,226.000 60.400,225.200 60.400 C 224.400 60.400,224.000 60.200,224.000 59.800 C 224.000 59.356,223.533 59.200,222.200 59.200 C 220.867 59.200,220.400 59.044,220.400 58.600 C 220.400 58.200,220.000 58.000,219.200 58.000 C 218.400 58.000,218.000 57.800,218.000 57.400 C 218.000 56.939,217.489 56.800,215.800 56.800 C 214.111 56.800,213.600 56.661,213.600 56.200 C 213.600 55.720,213.000 55.600,210.600 55.600 C 208.200 55.600,207.600 55.480,207.600 55.000 C 207.600 54.488,206.489 54.400,200.000 54.400 C 193.511 54.400,192.400 54.488,192.400 55.000 M208.400 57.961 C 253.085 65.348,265.052 122.306,227.200 147.442 C 206.276 161.337,175.558 155.295,161.050 134.431 C 150.453 119.191,149.042 100.579,157.254 84.366 C 164.054 70.940,175.208 62.107,189.757 58.626 C 196.662 56.975,201.410 56.805,208.400 57.961 M195.800 97.245 C 193.820 98.585,192.020 99.851,191.800 100.060 C 191.580 100.269,191.287 102.186,191.149 104.320 C 191.011 106.454,190.762 108.526,190.597 108.924 C 190.360 109.493,191.053 110.365,193.848 113.014 C 198.054 117.001,198.074 117.010,201.130 116.218 C 202.442 115.878,204.332 115.600,205.331 115.600 C 207.341 115.600,207.712 115.249,209.764 111.400 C 210.350 110.300,211.207 108.802,211.669 108.070 L 212.508 106.741 211.054 103.393 C 210.254 101.551,209.600 99.784,209.600 99.467 C 209.600 98.241,208.156 97.260,205.400 96.614 C 203.860 96.253,201.921 95.697,201.092 95.379 C 200.262 95.060,199.542 94.802,199.492 94.805 C 199.441 94.808,197.780 95.906,195.800 97.245 M200.800 98.200 C 200.800 98.661,201.311 98.800,203.000 98.800 C 204.689 98.800,205.200 98.939,205.200 99.400 C 205.200 99.730,205.470 100.000,205.800 100.000 C 206.130 100.000,206.400 100.270,206.400 100.600 C 206.400 100.930,206.670 101.200,207.000 101.200 C 207.444 101.200,207.600 101.667,207.600 103.000 C 207.600 104.333,207.756 104.800,208.200 104.800 C 208.644 104.800,208.800 105.267,208.800 106.600 C 208.800 107.933,208.644 108.400,208.200 108.400 C 207.827 108.400,207.600 108.778,207.600 109.400 C 207.600 110.022,207.373 110.400,207.000 110.400 C 206.670 110.400,206.400 110.670,206.400 111.000 C 206.400 111.330,206.130 111.600,205.800 111.600 C 205.470 111.600,205.200 111.870,205.200 112.200 C 205.200 112.661,204.689 112.800,203.000 112.800 C 201.311 112.800,200.800 112.939,200.800 113.400 C 200.800 113.730,200.530 114.000,200.200 114.000 C 199.870 114.000,199.600 113.730,199.600 113.400 C 199.600 113.000,199.200 112.800,198.400 112.800 C 197.600 112.800,197.200 112.600,197.200 112.200 C 197.200 111.870,196.930 111.600,196.600 111.600 C 196.270 111.600,196.000 111.330,196.000 111.000 C 196.000 110.670,195.730 110.400,195.400 110.400 C 195.070 110.400,194.800 110.130,194.800 109.800 C 194.800 109.470,194.530 109.200,194.200 109.200 C 193.714 109.200,193.600 108.556,193.600 105.800 C 193.600 103.044,193.714 102.400,194.200 102.400 C 194.530 102.400,194.800 102.130,194.800 101.800 C 194.800 101.470,195.070 101.200,195.400 101.200 C 195.730 101.200,196.000 100.930,196.000 100.600 C 196.000 100.200,196.400 100.000,197.200 100.000 C 198.000 100.000,198.400 99.800,198.400 99.400 C 198.400 99.070,198.670 98.800,199.000 98.800 C 199.330 98.800,199.600 98.530,199.600 98.200 C 199.600 97.870,199.870 97.600,200.200 97.600 C 200.530 97.600,200.800 97.870,200.800 98.200 M83.600 177.800 C 83.600 178.200,83.200 178.400,82.400 178.400 C 81.333 178.400,81.200 178.533,81.200 179.600 C 81.200 180.400,81.000 180.800,80.600 180.800 C 80.071 180.800,80.000 184.822,80.000 214.600 C 80.000 244.378,80.071 248.400,80.600 248.400 C 81.000 248.400,81.200 248.800,81.200 249.600 C 81.200 250.400,81.400 250.800,81.800 250.800 C 82.130 250.800,82.400 251.070,82.400 251.400 C 82.400 251.925,84.756 252.000,101.200 252.000 C 117.644 252.000,120.000 251.925,120.000 251.400 C 120.000 251.070,120.270 250.800,120.600 250.800 C 121.044 250.800,121.200 250.333,121.200 249.000 C 121.200 247.667,121.356 247.200,121.800 247.200 C 122.322 247.200,122.400 245.378,122.400 233.200 L 122.400 219.200 151.600 219.200 L 180.800 219.200 180.800 298.200 L 180.800 377.200 166.200 377.200 C 153.489 377.200,151.600 377.278,151.600 377.800 C 151.600 378.200,151.200 378.400,150.400 378.400 C 149.740 378.400,149.200 378.580,149.200 378.800 C 149.200 379.020,148.930 379.200,148.600 379.200 C 148.200 379.200,148.000 379.600,148.000 380.400 C 148.000 381.200,147.800 381.600,147.400 381.600 C 146.876 381.600,146.800 383.756,146.800 398.600 C 146.800 413.444,146.876 415.600,147.400 415.600 C 147.800 415.600,148.000 416.000,148.000 416.800 C 148.000 417.867,148.133 418.000,149.200 418.000 C 150.000 418.000,150.400 418.200,150.400 418.600 C 150.400 419.130,156.311 419.200,201.200 419.200 C 246.089 419.200,252.000 419.130,252.000 418.600 C 252.000 418.200,252.400 418.000,253.200 418.000 C 254.267 418.000,254.400 417.867,254.400 416.800 C 254.400 416.000,254.600 415.600,255.000 415.600 C 255.524 415.600,255.600 413.444,255.600 398.600 C 255.600 383.756,255.524 381.600,255.000 381.600 C 254.600 381.600,254.400 381.200,254.400 380.400 C 254.400 379.600,254.200 379.200,253.800 379.200 C 253.470 379.200,253.200 379.020,253.200 378.800 C 253.200 378.580,252.660 378.400,252.000 378.400 C 251.200 378.400,250.800 378.200,250.800 377.800 C 250.800 377.278,248.911 377.200,236.200 377.200 L 221.600 377.200 221.600 298.200 L 221.600 219.200 250.800 219.200 L 280.000 219.200 280.000 233.200 C 280.000 245.378,280.078 247.200,280.600 247.200 C 281.044 247.200,281.200 247.667,281.200 249.000 C 281.200 250.333,281.356 250.800,281.800 250.800 C 282.130 250.800,282.400 251.070,282.400 251.400 C 282.400 251.925,284.756 252.000,301.200 252.000 C 317.644 252.000,320.000 251.925,320.000 251.400 C 320.000 251.070,320.270 250.800,320.600 250.800 C 321.000 250.800,321.200 250.400,321.200 249.600 C 321.200 248.800,321.400 248.400,321.800 248.400 C 322.329 248.400,322.400 244.378,322.400 214.600 C 322.400 184.822,322.329 180.800,321.800 180.800 C 321.400 180.800,321.200 180.400,321.200 179.600 C 321.200 178.533,321.067 178.400,320.000 178.400 C 319.200 178.400,318.800 178.200,318.800 177.800 C 318.800 177.268,305.467 177.200,201.200 177.200 C 96.933 177.200,83.600 177.268,83.600 177.800 M318.278 180.965 L 319.400 181.931 319.400 214.305 C 319.400 250.144,319.526 248.437,316.830 249.231 C 315.906 249.503,310.127 249.607,300.509 249.526 L 285.617 249.400 284.509 248.291 L 283.400 247.183 283.277 232.105 C 283.197 222.199,283.008 216.851,282.728 216.514 C 281.995 215.630,220.912 215.774,219.931 216.662 C 218.932 217.567,218.770 378.059,219.767 379.424 C 220.307 380.162,221.074 380.210,235.467 380.400 C 251.569 380.613,251.385 380.588,252.241 382.636 C 252.961 384.360,253.063 411.926,252.357 413.952 C 251.452 416.546,254.509 416.400,201.200 416.400 C 147.891 416.400,150.948 416.546,150.043 413.952 C 149.337 411.926,149.439 384.360,150.159 382.636 C 151.015 380.588,150.831 380.613,166.933 380.400 C 181.326 380.210,182.093 380.162,182.633 379.424 C 183.569 378.141,183.476 217.768,182.538 216.731 C 181.675 215.777,120.455 215.570,119.667 216.519 C 119.382 216.863,119.197 222.107,119.119 232.110 L 119.000 247.183 117.891 248.291 L 116.783 249.400 101.891 249.526 C 92.273 249.607,86.494 249.503,85.570 249.231 C 82.874 248.437,83.000 250.144,83.000 214.305 L 83.000 181.931 84.122 180.965 L 85.245 180.000 201.200 180.000 L 317.155 180.000 318.278 180.965 M309.280 426.880 C 308.715 427.445,308.568 492.209,309.131 492.557 C 309.544 492.812,312.406 489.873,319.021 482.400 C 321.845 479.210,324.256 476.510,324.378 476.400 C 324.500 476.290,325.860 474.760,327.400 473.001 C 329.819 470.237,331.911 467.883,333.405 466.244 C 333.628 466.000,338.115 460.940,343.377 455.000 C 348.638 449.060,353.226 443.912,353.572 443.559 C 353.917 443.206,355.190 441.775,356.400 440.378 C 357.610 438.982,358.977 437.429,359.439 436.927 C 366.495 429.256,367.736 427.646,367.144 426.932 C 366.528 426.190,310.021 426.139,309.280 426.880 M362.000 430.200 C 362.000 430.530,361.730 430.800,361.400 430.800 C 361.070 430.800,360.800 431.070,360.800 431.400 C 360.800 431.730,360.530 432.000,360.200 432.000 C 359.870 432.000,359.600 432.270,359.600 432.600 C 359.600 432.930,359.330 433.200,359.000 433.200 C 358.670 433.200,358.400 433.470,358.400 433.800 C 358.400 434.130,358.130 434.400,357.800 434.400 C 357.470 434.400,357.200 434.670,357.200 435.000 C 357.200 435.330,357.020 435.600,356.800 435.600 C 356.580 435.600,356.400 435.870,356.400 436.200 C 356.400 436.530,356.130 436.800,355.800 436.800 C 355.470 436.800,355.200 437.070,355.200 437.400 C 355.200 437.730,354.930 438.000,354.600 438.000 C 354.270 438.000,354.000 438.270,354.000 438.600 C 354.000 438.930,353.730 439.200,353.400 439.200 C 353.027 439.200,352.800 439.578,352.800 440.200 C 352.800 440.822,352.573 441.200,352.200 441.200 C 351.870 441.200,351.600 441.470,351.600 441.800 C 351.600 442.130,351.330 442.400,351.000 442.400 C 350.670 442.400,350.400 442.670,350.400 443.000 C 350.400 443.330,350.130 443.600,349.800 443.600 C 349.470 443.600,349.200 443.870,349.200 444.200 C 349.200 444.530,348.930 444.800,348.600 444.800 C 348.270 444.800,348.000 445.070,348.000 445.400 C 348.000 445.730,347.730 446.000,347.400 446.000 C 347.070 446.000,346.800 446.270,346.800 446.600 C 346.800 446.930,346.530 447.200,346.200 447.200 C 345.870 447.200,345.600 447.470,345.600 447.800 C 345.600 448.130,345.330 448.400,345.000 448.400 C 344.670 448.400,344.400 448.670,344.400 449.000 C 344.400 449.330,344.130 449.600,343.800 449.600 C 343.400 449.600,343.200 450.000,343.200 450.800 C 343.200 451.600,343.000 452.000,342.600 452.000 C 342.270 452.000,342.000 452.270,342.000 452.600 C 342.000 452.930,341.820 453.200,341.600 453.200 C 341.380 453.200,341.200 453.470,341.200 453.800 C 341.200 454.130,340.930 454.400,340.600 454.400 C 340.270 454.400,340.000 454.580,340.000 454.800 C 340.000 455.020,339.730 455.200,339.400 455.200 C 339.070 455.200,338.800 455.470,338.800 455.800 C 338.800 456.130,338.530 456.400,338.200 456.400 C 337.870 456.400,337.600 456.670,337.600 457.000 C 337.600 457.330,337.330 457.600,337.000 457.600 C 336.670 457.600,336.400 457.870,336.400 458.200 C 336.400 458.530,336.130 458.800,335.800 458.800 C 335.470 458.800,335.200 459.070,335.200 459.400 C 335.200 459.730,334.930 460.000,334.600 460.000 C 334.200 460.000,334.000 460.400,334.000 461.200 C 334.000 462.000,333.800 462.400,333.400 462.400 C 333.070 462.400,332.800 462.670,332.800 463.000 C 332.800 463.330,332.530 463.600,332.200 463.600 C 331.870 463.600,331.600 463.870,331.600 464.200 C 331.600 464.530,331.330 464.800,331.000 464.800 C 330.670 464.800,330.400 465.070,330.400 465.400 C 330.400 465.730,330.130 466.000,329.800 466.000 C 329.470 466.000,329.200 466.270,329.200 466.600 C 329.200 466.930,328.930 467.200,328.600 467.200 C 328.270 467.200,328.000 467.470,328.000 467.800 C 328.000 468.130,327.730 468.400,327.400 468.400 C 327.070 468.400,326.800 468.593,326.800 468.829 C 326.800 469.382,325.782 470.400,325.229 470.400 C 324.993 470.400,324.800 470.940,324.800 471.600 C 324.800 472.400,324.600 472.800,324.200 472.800 C 323.870 472.800,323.600 473.070,323.600 473.400 C 323.600 473.730,323.330 474.000,323.000 474.000 C 322.670 474.000,322.400 474.270,322.400 474.600 C 322.400 474.930,322.130 475.200,321.800 475.200 C 321.470 475.200,321.200 475.470,321.200 475.800 C 321.200 476.130,320.930 476.400,320.600 476.400 C 320.270 476.400,320.000 476.670,320.000 477.000 C 320.000 477.330,319.730 477.600,319.400 477.600 C 319.070 477.600,318.800 477.870,318.800 478.200 C 318.800 478.530,318.530 478.800,318.200 478.800 C 317.870 478.800,317.600 479.070,317.600 479.400 C 317.600 479.730,317.330 480.000,317.000 480.000 C 316.670 480.000,316.400 480.270,316.400 480.600 C 316.400 480.930,316.130 481.200,315.800 481.200 C 315.400 481.200,315.200 481.600,315.200 482.400 C 315.200 483.200,315.000 483.600,314.600 483.600 C 314.270 483.600,314.000 483.870,314.000 484.200 C 314.000 484.530,313.730 484.800,313.400 484.800 C 313.070 484.800,312.800 484.961,312.800 485.157 C 312.800 485.354,312.530 485.618,312.200 485.745 C 311.670 485.948,311.600 482.679,311.600 457.787 L 311.600 429.600 336.800 429.600 C 358.933 429.600,362.000 429.673,362.000 430.200 " stroke="none" fill="#000000" fill-rule="evenodd"></path></g></svg>