<!DOCTYPE svg PUBLIC "-//W3C//DTD SVG 20010904//EN" "http://www.w3.org/TR/2001/REC-SVG-20010904/DTD/svg10.dtd">
<svg version="1.0" xmlns="http://www.w3.org/2000/svg" width="104px" height="106px" viewBox="0 0 1040 1060" preserveAspectRatio="xMidYMid meet">
<g id="layer101" fill="#030303" stroke="none">
 <path d="M395 1034 c-27 -8 -157 -66 -173 -79 -12 -9 -80 -79 -127 -131 -11 -12 -21 -28 -23 -35 -2 -8 -10 -19 -17 -25 -8 -6 -12 -14 -9 -17 4 -3 -1 -25 -11 -49 -26 -65 -31 -211 -11 -294 9 -38 17 -72 16 -77 0 -4 9 -17 20 -29 11 -12 20 -28 20 -35 0 -7 4 -13 8 -13 7 0 32 -42 35 -60 2 -11 94 -78 148 -108 268 -148 618 -17 718 268 13 36 27 69 32 75 11 11 12 205 1 205 -4 0 -14 21 -22 48 -27 94 -63 155 -126 217 -34 34 -77 69 -96 77 -137 64 -129 62 -248 64 -63 2 -124 0 -135 -2z m234 -25 c119 -27 253 -132 313 -245 151 -283 -3 -628 -317 -709 -298 -76 -595 160 -595 474 0 224 147 418 361 475 63 17 176 20 238 5z"/>
 <path d="M447 966 c-4 -9 -2 -16 4 -16 6 0 7 -4 4 -10 -3 -5 -1 -10 5 -10 6 0 9 -4 6 -9 -4 -5 -2 -11 3 -13 11 -4 135 -238 126 -238 -3 0 -1 -6 5 -12 6 -7 17 -22 24 -33 13 -18 18 -11 66 85 29 58 56 107 61 108 5 2 7 8 3 13 -3 5 0 9 6 9 6 0 8 5 5 10 -3 6 -2 10 3 10 5 0 7 11 4 25 -3 19 -20 33 -70 57 -55 28 -78 33 -157 36 -78 4 -93 2 -98 -12z"/>
 <path d="M330 944 c-79 -34 -200 -149 -200 -190 0 -8 19 -15 48 -19 26 -4 107 -20 179 -36 132 -29 201 -37 175 -20 -7 4 -14 18 -15 29 -1 12 -4 22 -8 22 -8 0 -62 120 -62 137 0 7 -4 13 -8 13 -4 0 -14 18 -23 40 -18 44 -31 48 -86 24z"/>
 <path d="M793 818 c-11 -24 -28 -61 -38 -83 -10 -22 -19 -42 -20 -45 -5 -26 -31 -80 -37 -80 -4 0 -7 -3 -6 -7 3 -13 -25 -83 -34 -83 -4 0 -5 -7 -2 -15 4 -8 1 -15 -7 -15 -7 0 -10 -2 -8 -5 5 -4 277 49 305 59 14 5 24 76 11 76 -5 0 -7 9 -4 20 3 11 2 20 -3 20 -7 0 -23 42 -24 65 -1 6 -7 17 -14 25 -7 8 -27 35 -45 59 -18 25 -37 46 -43 48 -7 2 -21 -15 -31 -39z"/>
 <path d="M95 688 c-11 -13 -19 -31 -17 -40 2 -10 0 -18 -5 -18 -9 0 -12 -192 -3 -200 3 -3 10 -18 15 -35 6 -16 16 -30 22 -30 13 0 303 252 303 264 0 4 -57 21 -128 39 -70 18 -136 35 -147 38 -14 3 -27 -3 -40 -18z"/>
 <path d="M457 607 c-58 -47 -51 -123 14 -165 26 -16 36 -17 71 -8 35 9 44 17 60 56 l20 45 -23 42 c-16 30 -31 43 -52 47 -47 10 -60 7 -90 -17z m121 -34 c59 -65 -36 -155 -108 -103 -24 17 -30 29 -30 59 0 77 84 103 138 44z"/>
 <path d="M248 419 c-65 -50 -118 -97 -118 -106 0 -22 64 -106 103 -136 43 -32 145 -83 152 -75 3 3 5 41 4 84 -1 44 -2 134 -3 202 -1 75 -5 122 -11 121 -5 -1 -63 -41 -127 -90z"/>
 <path d="M820 469 c-190 -49 -251 -69 -244 -80 17 -29 228 -197 240 -192 33 13 134 181 134 226 0 9 4 17 8 17 5 0 7 14 4 30 -2 17 -9 30 -16 30 -6 -1 -63 -14 -126 -31z"/>
 <path d="M438 253 c2 -82 5 -154 8 -162 12 -36 257 11 307 58 17 17 11 23 -137 134 -86 65 -161 117 -168 117 -10 0 -12 -34 -10 -147z"/>
 </g>

</svg>