<!DOCTYPE svg PUBLIC "-//W3C//DTD SVG 20010904//EN" "http://www.w3.org/TR/2001/REC-SVG-20010904/DTD/svg10.dtd">
<svg version="1.0" xmlns="http://www.w3.org/2000/svg" width="342px" height="451px" viewBox="0 0 3420 4510" preserveAspectRatio="xMidYMid meet">
<g id="layer101" fill="#030303" stroke="none">
 <path d="M74 4446 l-34 -34 0 -2152 0 -2152 34 -34 34 -34 1607 0 1607 0 34 34 34 34 0 1785 0 1784 -27 35 c-104 128 -677 757 -695 762 -13 3 -594 6 -1291 6 l-1269 0 -34 -34z m2366 -506 c0 -315 1 -344 19 -378 24 -47 56 -77 103 -97 31 -12 89 -15 333 -15 l295 0 0 -1605 0 -1605 -1475 0 -1475 0 0 2020 0 2020 1100 0 1100 0 0 -340z m447 12 c131 -147 244 -275 252 -285 13 -16 -1 -17 -243 -17 l-256 0 0 285 c0 157 2 285 4 285 2 0 111 -120 243 -268z"/>
 <path d="M1287 3553 c-13 -12 -8 -278 5 -291 8 -8 55 -12 145 -12 l133 0 0 -700 0 -700 -275 0 -274 0 -3 138 -3 137 -150 0 -150 0 0 -290 0 -290 1005 0 1005 0 0 290 0 290 -150 0 -150 0 -3 -137 -3 -138 -274 0 -275 0 0 700 0 700 134 0 c102 0 136 3 145 14 8 9 11 59 9 152 l-3 139 -431 3 c-237 1 -434 -1 -437 -5z"/>
 <path d="M1658 1318 c-178 -23 -338 -189 -354 -368 -19 -198 107 -383 298 -441 254 -77 528 122 530 386 1 89 -7 126 -43 197 -80 159 -252 249 -431 226z m118 -332 c0 0 10 -18 22 -39 20 -36 21 -40 7 -68 -9 -16 -13 -34 -10 -38 3 -5 -13 -12 -35 -16 -22 -4 -42 -11 -45 -16 -3 -4 -23 4 -44 19 -34 23 -40 33 -43 72 -3 39 0 48 27 72 26 24 35 27 75 22 25 -4 45 -7 46 -8z"/>
 </g>
<g id="layer102" fill="#fefefe" stroke="none">
 <path d="M0 2255 l0 -2255 1710 0 1710 0 0 2255 0 2255 -1710 0 -1710 0 0 -2255z m2667 2199 c18 -5 563 -604 671 -737 l32 -40 0 -1784 0 -1784 -25 -24 -24 -25 -1606 0 -1606 0 -24 25 -25 24 0 2151 0 2151 25 24 24 25 1268 0 c697 0 1278 -3 1290 -6z"/>
 <path d="M225 4288 c-3 -7 -4 -924 -3 -2038 l3 -2025 1490 0 1490 0 0 1620 0 1620 -315 5 c-294 5 -317 6 -350 25 -19 12 -43 36 -55 55 -19 33 -20 56 -25 390 l-5 355 -1113 3 c-885 2 -1114 0 -1117 -10z m1915 -883 l0 -134 -142 -3 -143 -3 0 -715 0 -715 290 0 290 0 3 138 3 137 134 0 135 0 0 -275 0 -275 -990 0 -990 0 0 275 0 275 135 0 134 0 3 -137 3 -138 290 0 290 0 0 715 0 715 -142 3 -143 3 0 134 0 135 420 0 420 0 0 -135z m-241 -2144 l60 -31 -66 -140 c-37 -77 -69 -140 -72 -140 -4 0 -45 78 -93 174 l-87 175 37 3 c72 6 160 -11 221 -41z m-214 -108 c36 -75 63 -138 61 -140 -2 -2 -66 10 -142 26 -75 17 -140 29 -142 26 -3 -3 -11 0 -18 6 -7 6 -18 8 -24 4 -14 -9 -1 -28 15 -21 7 2 16 1 21 -4 5 -4 53 -18 107 -30 55 -12 95 -26 90 -30 -4 -5 -73 -62 -153 -128 l-145 -120 -14 36 c-29 75 -12 306 20 286 6 -3 18 -3 27 1 16 6 16 7 -2 20 -18 13 -18 15 4 49 12 20 40 52 63 71 40 35 130 84 154 85 7 0 42 -61 78 -137z m337 12 c47 -57 81 -136 82 -194 l1 -54 -145 -32 c-80 -18 -146 -32 -146 -31 -1 0 35 80 80 177 51 112 85 174 92 170 6 -3 23 -19 36 -36z m-397 -440 c6 0 12 24 15 52 l5 53 150 -115 c83 -64 151 -120 153 -125 9 -25 -156 -80 -239 -80 -67 0 -169 34 -225 76 -57 42 -118 118 -111 137 3 7 31 33 63 57 33 25 84 64 114 89 l55 44 5 -94 c3 -53 9 -94 15 -94z m483 117 c-7 -67 -47 -148 -102 -207 -26 -27 -45 -45 -42 -39 3 6 -47 52 -110 103 -64 51 -113 95 -110 98 5 5 341 91 360 92 5 1 6 -21 4 -47z"/>
 <path d="M2625 4249 c-3 -8 -4 -149 -3 -314 l3 -300 269 -3 c148 -1 273 1 278 6 6 6 -409 484 -538 621 -2 2 -6 -2 -9 -10z"/>
 </g>

</svg>